 <!DOCTYPE svg PUBLIC "-//W3C//DTD SVG 1.1//EN" "http://www.w3.org/Graphics/SVG/1.1/DTD/svg11.dtd">
<svg id="fd0daeff-1e22-4769-bdfe-68c92a5cdddd" data-name="Layer 1" xmlns="http://www.w3.org/2000/svg" width="865.76" height="682.89" viewBox="0 0 865.76 682.89">
<defs>
<style xmlns="http://www.w3.org/1999/xhtml">*, ::after, ::before { box-sizing: border-box; }
img, svg { vertical-align: middle; }
</style>
<style xmlns="http://www.w3.org/1999/xhtml">*, body, html { -webkit-font-smoothing: antialiased; }
img, svg { max-width: 100%; }
</style>
</defs>
<path d="M212.19,202.26C26.4,335,84.3,502.93,84.3,502.93c37.19,110.49,137.79,135.79,137.79,135.79s178.72,58.07,420.65-100.89c0,0,92.08-66.38,96.6-140.65,0,0,5.12-39.34-51.77-49.67-28.6-5.19-42.11-38.56-25.44-62.36l.79-1.11a30.68,30.68,0,0,1,12.42-10c27.74-12.25,134.95-64.56,111.27-132.25,0,0-24.54-141.11-224.48-67.89Z" fill="#e94949" data-primary="true"/>
<path d="M212.19,202.26C26.4,335,84.3,502.93,84.3,502.93c37.19,110.49,137.79,135.79,137.79,135.79s178.72,58.07,420.65-100.89c0,0,92.08-66.38,96.6-140.65,0,0,5.12-39.34-51.77-49.67-28.6-5.19-42.11-38.56-25.44-62.36l.79-1.11a30.68,30.68,0,0,1,12.42-10c27.74-12.25,134.95-64.56,111.27-132.25,0,0-24.54-141.11-224.48-67.89Z" fill="#fff" opacity="0.7"/>
<path d="M582.43,308.48s-2.68-12.15,12.2-20.23c0,0,17-13.13,14-24.24L662,248.88s11.62,22.79-8.56,32.35c0,0-9.92,4.35-6,18.29,0,0,6.1,23-7.4,33.18l-25.18,15.64L579.4,328.16Z" fill="#e94949" data-primary="true"/>
<path d="M582.43,308.48s-2.68-12.15,12.2-20.23c0,0,17-13.13,14-24.24L662,248.88s11.62,22.79-8.56,32.35c0,0-9.92,4.35-6,18.29,0,0,6.1,23-7.4,33.18l-25.18,15.64L579.4,328.16Z" opacity="0.1"/>
<path d="M602.46,321.59a160.51,160.51,0,0,1,8.37-17.26c3.09-5.61,6.55-11,10.18-16.29,1.82-2.65,3.87-5.11,5.62-7.75s3.5-5.32,5.18-8,3.24-5.48,4.66-8.33a50.77,50.77,0,0,0,3.61-8.84c-1.35,6.29-4.34,12.08-7.45,17.66-1.56,2.8-3.29,5.5-5.06,8.17s-3.78,5.19-5.54,7.83c-3.7,5.18-7.12,10.57-10.37,16.05-1.65,2.73-3.21,5.51-4.74,8.31S603.89,318.73,602.46,321.59Z" opacity="0.1"/>
<polygon points="575.52 461.49 213.9 580.51 211.85 128.64 575.52 33.83 575.52 461.49" fill="#fff"/>
<polygon points="441.98 407.31 441.98 414.75 298.12 459.9 298.12 451.4 441.98 407.31" fill="#000000" data-secondary="true"/>
<polygon points="371.96 459.9 371.96 468.4 441.98 444.7 441.98 436.73 371.96 459.9" fill="#000000" data-secondary="true"/>
<polygon points="441.98 465.74 441.98 473.71 324.68 512.49 324.68 504.79 441.98 465.74" fill="#000000" data-secondary="true"/>
<polygon points="458.06 132.67 459.61 470.57 562.13 432.23 562.13 105.93 458.06 132.67" fill="#e94949" data-primary="true"/>
<polygon points="458.06 132.67 459.61 470.57 562.13 432.23 562.13 105.93 458.06 132.67" fill="#fff" opacity="0.3"/>
<polygon points="211.85 128.64 212.05 172.52 575.52 70.17 575.52 33.83 211.85 128.64" fill="#e94949" data-primary="true"/>
<path d="M269,125.3l1.37,20.9a2.92,2.92,0,0,0,3.75,2.6l97-28.75a2.91,2.91,0,0,0,2.08-3l-1.31-18.88a2.93,2.93,0,0,0-3.69-2.62l-97,26.75A2.91,2.91,0,0,0,269,125.3Z" opacity="0.2"/>
<circle cx="234.62" cy="147.59" r="12.53" fill="#fff"/>
<path d="M425.69,381.71,275.57,426.57a22.81,22.81,0,0,1-29.34-21.7l-1.42-199.64a22.31,22.31,0,0,1,16.53-21.71L413.88,142.6A22.32,22.32,0,0,1,442,164.15v195.7A22.82,22.82,0,0,1,425.69,381.71Z" fill="#e94949" data-primary="true"/>
<path d="M425.69,381.71,275.57,426.57a22.81,22.81,0,0,1-29.34-21.7l-1.42-199.64a22.31,22.31,0,0,1,16.53-21.71L413.88,142.6A22.32,22.32,0,0,1,442,164.15v195.7A22.82,22.82,0,0,1,425.69,381.71Z" fill="#fff" opacity="0.4"/>
<g opacity="0.4">
<rect x="342.53" y="152.47" width="1.24" height="260.94" transform="translate(-97.92 340.12) rotate(-46.89)" fill="#fff"/>
</g>
<g opacity="0.4">
<rect x="181.03" y="284.99" width="328.36" height="1.24" transform="translate(-81.77 421.37) rotate(-57.24)" fill="#fff"/>
</g>
<path d="M567.61,457.45s18.16-1.56,26.94-14.37c0,0,4.83-14.41,27.66,0,0,0,37.75,41.12,47,14.37,0,0,4.39-23.57,17.56-23.84,0,0,18.45-.1,16.45-9a7,7,0,0,0-2.44-3.79c-7.38-6.12-43.22-34.12-65.28-19.79,0,0-26.82,10.1-41.11-1.2h0a27.72,27.72,0,0,0-32.07-1.71c-17.44,11.12-23,20.78-23,20.78l-9.32,8.61S552.55,461.89,567.61,457.45Z" fill="#e94949" data-primary="true"/>
<path d="M567.61,457.45s18.16-1.56,26.94-14.37c0,0,4.83-14.41,27.66,0,0,0,37.75,41.12,47,14.37,0,0,4.39-23.57,17.56-23.84,0,0,18.45-.1,16.45-9a7,7,0,0,0-2.44-3.79c-7.38-6.12-43.22-34.12-65.28-19.79,0,0-26.82,10.1-41.11-1.2h0a27.72,27.72,0,0,0-32.07-1.71c-17.44,11.12-23,20.78-23,20.78l-9.32,8.61S552.55,461.89,567.61,457.45Z" opacity="0.3"/>
<path d="M616.64,340.64s1.93-5.15,12.43-5.69a36.19,36.19,0,0,0,12.55-2.9c5.61-2.42,12.89-6.52,18.11-12.92a47.09,47.09,0,0,1,6.51-6.73c7.93-6.56,24.4-17.35,37.1-6.73,0,0,15.82,5.22,0,22.54a52.17,52.17,0,0,1-10.5,8.69A54.12,54.12,0,0,0,670,369.26a41.47,41.47,0,0,1-6.78,14.56c-6.19,8.35-17.78,17.35-37.84,12.88A22,22,0,0,0,604.23,403c-.32.35-.64.72-1,1.1,0,0-9.81-.24-14.37-13.22Z" fill="#e94949" data-primary="true"/>
<path d="M616.64,340.64s1.93-5.15,12.43-5.69a36.19,36.19,0,0,0,12.55-2.9c5.61-2.42,12.89-6.52,18.11-12.92a47.09,47.09,0,0,1,6.51-6.73c7.93-6.56,24.4-17.35,37.1-6.73,0,0,15.82,5.22,0,22.54a52.17,52.17,0,0,1-10.5,8.69A54.12,54.12,0,0,0,670,369.26a41.47,41.47,0,0,1-6.78,14.56c-6.19,8.35-17.78,17.35-37.84,12.88A22,22,0,0,0,604.23,403c-.32.35-.64.72-1,1.1,0,0-9.81-.24-14.37-13.22Z" opacity="0.2"/>
<path d="M547.19,434.58c9.11-5.28,19.18-8.7,29.33-11.39a193.91,193.91,0,0,1,31.12-5.14c5.26-.28,10.51-.67,15.78-.57h3.94c1.32,0,2.64,0,3.95.08l7.88.42c1.31.09,2.63.11,3.93.26l3.92.43,7.84.86c2.61.33,5.18.85,7.78,1.27l7.76,1.35c-5.22-.63-10.4-1.45-15.61-2l-7.84-.68-3.91-.34c-1.31-.13-2.62-.12-3.93-.18l-7.85-.3c-1.31-.08-2.62-.07-3.93-.05l-3.92,0c-5.24-.06-10.46.36-15.69.67a205.28,205.28,0,0,0-31,4.83c-2.54.63-5.09,1.21-7.59,2l-3.77,1.11-3.72,1.27A100.85,100.85,0,0,0,547.19,434.58Z" opacity="0.2"/>
<path d="M484.84,584.57,493,613.84l38.77-14.64s6.83-30.45,7.43-41.39C539.16,557.81,509.62,567.43,484.84,584.57Z" fill="#f9b499"/>
<path d="M543.68,556.32,550.53,590l39.74-19.19-1.36-22.46A161.73,161.73,0,0,0,543.68,556.32Z" fill="#f9b499"/>
<path d="M543.68,556.32l1.64,8s21.91-15.29,43.89-11.17l-.3-4.9S564.29,548.63,543.68,556.32Z" fill="#f7a48b"/>
<path d="M484.84,584.57l1.3,4.65s28.24-17.85,52.14-23.73l.88-7.68S505,569.66,484.84,584.57Z" fill="#f7a48b"/>
<path d="M479.73,312.79v9s8.29-.69,12.19,1.83c0,0,.05-9.09,5.95-20.74,0,0-2.71-1.29-2.92-3.4Z" fill="#f9b499"/>
<path d="M479.73,312.79v6.51s12.78-1.91,16.78-17.23a4.27,4.27,0,0,1-1.56-2.55Z" fill="#f7a48b"/>
<path d="M474.36,272.48s-16.79-26.5-20.93-39.82a3.92,3.92,0,0,1-.12-1.77c.83-5.24,4.33-32.3-10.83-34.73a3.9,3.9,0,0,0-4,1.83c-1.51,2.58-3.47,8.09-3,19,0,0-1.52,1-5.8-2.46a1.15,1.15,0,0,0-1.86.9c0,2.22,1.06,6.12,6.61,11.37a36.24,36.24,0,0,1,10.06,19.12s13.68,40.18,19.08,50.55Z" fill="#f9b499"/>
<path d="M463.6,296.46s-9.76-17.25,6.19-31.45l4.57,7.47Z" fill="#f7a48b"/>
<ellipse cx="482.02" cy="291.29" rx="28.25" ry="18.02" transform="translate(-11.25 563.09) rotate(-60)" fill="#f9b499"/>
<path d="M546.93,438.12c-5.12,6.06-30.5-1.39-30.5-1.39-6,5.4-11.28,8.13-15.77,9.32h0c-7.63,2-12.88-.45-15-1.81a11.44,11.44,0,0,0-2.5-1.18c-6.91-2.25-4.65-6.58-4.65-6.58.93-10-3.26-15.13-3.26-15.13a83,83,0,0,1-9.76-24.18l0,0c-5.81-8.15-7.37-24.05-7.37-24.05L498,335h14.49l26.08,62.39a78.08,78.08,0,0,1,0,26.54C549.5,433,546.93,438.12,546.93,438.12Z" fill="#e94949" data-primary="true"/>
<path d="M500.66,446.05h0c-7.63,2-12.88-.45-15-1.81a11.44,11.44,0,0,0-2.5-1.18c-6.91-2.25-4.65-6.58-4.65-6.58.93-10-3.26-15.13-3.26-15.13a83,83,0,0,1-9.76-24.18c.19.43,2.59,5.21,13,7.88,0,0-2.33,3,0,9.54,0,0,5.36,7.22,3.73,20C482.2,434.62,479.54,444.19,500.66,446.05Z" opacity="0.2"/>
<path d="M529.93,412s-25.08,24.29-40.5,19.58a3.23,3.23,0,0,1,.05-6.2,14.7,14.7,0,0,1,4-.49,35.08,35.08,0,0,0,8.58-1.19C510,421.69,524.21,417.44,529.93,412Z" opacity="0.2"/>
<path d="M389.6,395.05c10.91-2,49.58-5.79,49.58-5.79l8-17.93,1.93-4.32c13.67,9.6,23.15,23.85,23.15,23.85l-12.81,12a35.24,35.24,0,0,1-24.09,8.64c-21.62,3.2-44-4.33-44-4.33" fill="#f9b499"/>
<path d="M472.26,390.86l-3.63,3.39c-5.72-13.88-21.45-22.92-21.45-22.92l1.93-4.32C462.78,376.61,472.26,390.86,472.26,390.86Z" fill="#f7a48b"/>
<path d="M588.91,548.3a143.55,143.55,0,0,0-26.78,3.12h0c-23.59,4.92-44.92,14.68-59.17,22.33a203.62,203.62,0,0,0-18.11,10.81l-7.74-44.39q-1.74-9.87-2.61-19.87c-5.37-61.8,8.63-77.23,8.63-77.23a23.73,23.73,0,0,0,5.16,2.55h0c15,5.2,28.14-8.9,28.14-8.9,24.5,6.75,28.36,2.82,28.36,2.82a64.69,64.69,0,0,1,18.55,13.11c18.93,19.18,20,44.61,20,44.61Z" fill="#000000" data-secondary="true"/>
<path d="M588.91,548.3a143.55,143.55,0,0,0-26.78,3.12c.54-.37,18-12.67,21.17-54.15Z" opacity="0.2"/>
<path d="M522.22,527.08l-9.84,19.42s40.35-14.88,55.23-53.46C567.61,493,539.11,525.57,522.22,527.08Z" opacity="0.2"/>
<path d="M563.34,452.66c-12.83.46-26.5-7-26.5-7-13.87-3.55-19.16,0-19.16,0-16.21,8.57-28.75.44-29.39,0,15,5.2,28.14-8.9,28.14-8.9,24.5,6.75,28.36,2.82,28.36,2.82A64.69,64.69,0,0,1,563.34,452.66Z" opacity="0.2"/>
<path d="M503,573.76a203.62,203.62,0,0,0-18.11,10.81l-7.74-44.39q-1.74-9.87-2.61-19.87c-5.37-61.8,8.63-77.23,8.63-77.23l5.16,2.55h0S470.07,518.31,503,573.76Z" opacity="0.2"/>
<path d="M301.78,593.67l-110.4,37.14a15.14,15.14,0,0,1-20-14.18l-1.27-118a20.16,20.16,0,0,1,14.26-19.49l106.1-32.46a16.38,16.38,0,0,1,21.17,15.73l-.44,118.2A13.87,13.87,0,0,1,301.78,593.67Z" fill="#e94949" data-primary="true"/>
<path d="M301.78,593.67l-110.4,37.14a15.14,15.14,0,0,1-20-14.18l-1.27-118a20.16,20.16,0,0,1,14.26-19.49l106.1-32.46a16.38,16.38,0,0,1,21.17,15.73l-.44,118.2A13.87,13.87,0,0,1,301.78,593.67Z" fill="#fff" opacity="0.4"/>
<g opacity="0.4">
<rect x="132.16" y="538.86" width="220.06" height="1.24" transform="translate(-338.83 429.45) rotate(-55.1)" fill="#fff"/>
</g>
<g opacity="0.4">
<rect x="240.52" y="453.39" width="1.24" height="168.88" transform="translate(-334.15 409.58) rotate(-53.28)" fill="#fff"/>
</g>
<path d="M562.56,184.73,674.18,160a9.56,9.56,0,0,1,11.61,9l2.49,67a6.85,6.85,0,0,1-5,6.82L568.83,275.3a12.35,12.35,0,0,1-15.72-11.65l-1.21-65.39A13.6,13.6,0,0,1,562.56,184.73Z" fill="#e94949" data-primary="true"/>
<path d="M562.56,184.73,674.18,160a9.56,9.56,0,0,1,11.61,9l2.49,67a6.85,6.85,0,0,1-5,6.82L568.83,275.3a12.35,12.35,0,0,1-15.72-11.65l-1.21-65.39A13.6,13.6,0,0,1,562.56,184.73Z" fill="#fff" opacity="0.4"/>
<path d="M493.54,323.14c27,24.63-13.11,64.15-19.1,69.77a.73.73,0,0,1-1.16-.23c-4.64-9.21-20-22.24-24.18-25.66a1.67,1.67,0,0,1-.41-2.06l21.11-40.64s6.22-8.66,15.3-6.23a13.46,13.46,0,0,1,4.3,2.11Z" fill="#e94949" data-primary="true"/>
<path d="M612.9,382.44a5.5,5.5,0,0,0-2.79,2.77c-4.26,9.52-11.9,14-19.73,15.85-12.83,3.06-26.21-.84-26.21-.84-27.27,14.53-39.66-16.28-39.66-16.28-27.27,3.54-19.13-45.33-19.13-45.33-24.54.33-8.34-34-7.53-35.63,0,0,0,0,0,0v0l2.36-12.47,0-.18,0-.24c-11.67,1.09-18.47-3-22.4-8.33a20.14,20.14,0,0,1-1.27-1.89c-4.29-7.26-4.19-15.9-4.14-17.42,0-.15,0-.24,0-.24A62.73,62.73,0,0,0,490.1,257a50.66,50.66,0,0,1,20.07-4.75c30.17-.48,34.52,22.65,34.52,22.65a32.68,32.68,0,0,0,18.42,24.43l29,13.82c20.54,11,9.21,22.66,9.21,22.66,16.65.36,21.6,12.4,21.6,12.4C636.25,369.73,619,379.72,612.9,382.44Z" fill="#000000" data-secondary="true"/>
<path d="M612.9,382.44a5.5,5.5,0,0,0-2.79,2.77c-4.26,9.52-11.9,14-19.73,15.85-12.83,3.06-26.21-.84-26.21-.84-27.27,14.53-39.66-16.28-39.66-16.28-27.27,3.54-19.13-45.33-19.13-45.33-24.54.33-8.34-34-7.53-35.63,0,0,0,0,0,0v0l2.36-12.47,0-.18,0-.24c-11.67,1.09-18.47-3-22.4-8.33a20.14,20.14,0,0,1-1.27-1.89c-4.29-7.26-4.19-15.9-4.14-17.42,0-.15,0-.24,0-.24A62.73,62.73,0,0,0,490.1,257a50.66,50.66,0,0,1,20.07-4.75c30.17-.48,34.52,22.65,34.52,22.65a32.68,32.68,0,0,0,18.42,24.43l29,13.82c20.54,11,9.21,22.66,9.21,22.66,16.65.36,21.6,12.4,21.6,12.4C636.25,369.73,619,379.72,612.9,382.44Z" opacity="0.2"/>
<path d="M612.9,382.44a5.5,5.5,0,0,0-2.79,2.77c-4.26,9.52-11.9,14-19.73,15.85a13.92,13.92,0,0,1-4.3-.9,8,8,0,0,1-4.35-4.55c-2.4-5.85-7.29-3.53-7.29-3.53-14.52,13.1-31.16-3.54-31.16-3.54-22-22-11-38.6-11-38.6,1.78-14.17-19.83-17.36-19.83-17.36-23.41-.34-15.08-28.07-14.61-29.6,0,0,0,0,0,0v0c.73-2.86,2.05-10.58,2.36-12.47l0-.18c0-.15,0-.24,0-.24-11.65.87-18.44-3.12-22.4-8.33a20.14,20.14,0,0,1-1.27-1.89c-4.4-7.24-4.22-15.88-4.14-17.42,0-.15,0-.24,0-.24A62.73,62.73,0,0,0,490.1,257a50.66,50.66,0,0,1,20.07-4.75c30.17-.48,34.52,22.65,34.52,22.65a32.68,32.68,0,0,0,18.42,24.43l29,13.82c20.54,11,9.21,22.66,9.21,22.66,16.65.36,21.6,12.4,21.6,12.4C636.25,369.73,619,379.72,612.9,382.44Z" fill="#000000" data-secondary="true"/>
<path d="M481,263.57s-3.37,0-1.27,8.65c0,0,1,13.79,14.73,17.83,0,0-10.76-5.24-11-17.83C483.5,272.22,484.66,264.23,481,263.57Z" opacity="0.2"/>
<ellipse cx="501.47" cy="296.46" rx="7.49" ry="6.11" transform="matrix(0.66, -0.75, 0.75, 0.66, -52.72, 476.01)" fill="#f9b499"/>
<path d="M347.53,403.49,365,400.93l9.48-3.56a1.75,1.75,0,0,0,1.11-1.89h0a1.73,1.73,0,0,0-1.17-1.4,54.58,54.58,0,0,1-6.11-2.47,4.67,4.67,0,0,1-2.46-5.32l13.2,2.08,10.54,6.68,1.8,12.1-15,3.86s-15.49,1.64-19.93,1.12-4.42-2.57-4.42-2.57c-.83-.27-2.49-1.74-2.48-3.09-2.14-2-2.05-3-2.05-3" fill="#f9b499"/>
<path d="M369.15,408.86c-.45.14-1.11.32-1.94.5a35,35,0,0,1-6.53.85,35.35,35.35,0,0,1-6.58-.38c-.84-.13-1.51-.26-2-.37a3.58,3.58,0,0,1-.71-.2,3.55,3.55,0,0,1,.73.08c.46.09,1.14.18,2,.28a40.77,40.77,0,0,0,13-.46c.83-.15,1.49-.3,1.95-.41a2.86,2.86,0,0,1,.72-.13A4.72,4.72,0,0,1,369.15,408.86Z" fill="#f7a48b"/>
<path d="M367.55,406.16c-.46.14-1.13.31-2,.5a35.43,35.43,0,0,1-6.64.8,37.31,37.31,0,0,1-6.68-.42c-.85-.13-1.53-.26-2-.37a5.75,5.75,0,0,1-.71-.2,3.65,3.65,0,0,1,.74.08c.47.08,1.15.18,2,.28a43.32,43.32,0,0,0,6.64.33,41.87,41.87,0,0,0,6.6-.7c.86-.17,1.52-.3,2-.41a3,3,0,0,1,.73-.14A4.16,4.16,0,0,1,367.55,406.16Z" fill="#f7a48b"/>
<g opacity="0.4">
<rect x="619.31" y="145.42" width="1.24" height="142.15" transform="translate(213.24 732.04) rotate(-70.98)" fill="#fff"/>
<rect x="537.58" y="217.69" width="166.77" height="1.24" transform="translate(11.81 467.69) rotate(-41.63)" fill="#fff"/>
</g>
<path d="M697.93,311.59c-5.68,4.82-11.44,9.53-17.22,14.23s-11.62,9.31-17.43,14-11.7,9.2-17.6,13.74l-8.87,6.79c-3,2.23-5.94,4.49-8.94,6.69,2.83-2.42,5.71-4.77,8.57-7.16l8.65-7.07c5.77-4.69,11.62-9.31,17.43-14s11.7-9.21,17.6-13.75S691.93,316,697.93,311.59Z" opacity="0.1"/>
</svg>