 <!DOCTYPE svg PUBLIC "-//W3C//DTD SVG 1.1//EN" "http://www.w3.org/Graphics/SVG/1.1/DTD/svg11.dtd">
<svg id="ae4acdd5-ff2e-4327-81f6-13225b855ef2" data-name="Layer 1" xmlns="http://www.w3.org/2000/svg" width="865.76" height="682.89" viewBox="0 0 865.76 682.89">
<defs>
<style xmlns="http://www.w3.org/1999/xhtml">*, ::after, ::before { box-sizing: border-box; }
img, svg { vertical-align: middle; }
</style>
<style xmlns="http://www.w3.org/1999/xhtml">*, body, html { -webkit-font-smoothing: antialiased; }
img, svg { max-width: 100%; }
</style>
</defs>
<path d="M749.47,163s5.77-9.26,16.66-7.57c0,0,26.07,1.35,23.25,13.21C789.38,168.59,774.08,159.12,749.47,163Z" fill="#ef3939" data-primary="true"/>
<path d="M749.47,163s5.77-9.26,16.66-7.57c0,0,26.07,1.35,23.25,13.21C789.38,168.59,774.08,159.12,749.47,163Z" opacity="0.2"/>
<path d="M755,174.39c-12.55,3.23-16.37,13.15-16.37,13.15s-10.7-12.07,3.08-21.18a26,26,0,0,1,11.32-4.08c7.81-.94,23.68-1.46,37.21,6.84,0,0,13.8,7.45,2,25.58a37.36,37.36,0,0,0-15.83-17.43A29.22,29.22,0,0,0,755,174.39Z" fill="#ef3939" data-primary="true"/>
<path d="M733.74,228.34s-3-43.06,13.66-51.26c0,0,17-10.33,34,3,0,0,11.16,7.84,12.82,22.33s2.54,27.33,2.54,27.33l-1.6-.13s-.46-12-2.36-14.61l0,14.42-13.14-1s-6-.71-7.28-4.84l-1-9.72s-8.31,6.11-16.08,2.17l-1.87-1-1.72-1.77v11.42s-5.91,3.06-6.06,3.66S733.74,228.34,733.74,228.34Z" fill="#2f2e41" data-secondary="true"/>
<path d="M829.56,317.93l2.6.83a3.48,3.48,0,0,1-1.1.57c-.5.17-1,.19-1.5.3Z" fill="#a7a9ac"/>
<path d="M807.58,264.19s19.89,7.67,20.45,25.12l3.19,59.49a18.06,18.06,0,0,1-7.93,2.49s5.91-6-2.09-17.65l-9.72-37.8-2.78-5.78Z" fill="#d1d3d4"/>
<path d="M804.3,358.18s3.6,1.74,20.93-6.89c0,0-16.18-29.66-16.18-30.86s-7.5-10.92-7.5-10.92l-6.48,2.64S804.17,348.56,804.3,358.18Z" fill="#a7a9ac"/>
<path d="M694.52,212.09s26.63-2.54,30.57,6.75c0,0,9.86,12.67,17.74,48.42,0,0-4.51,53.77-8.73,66.15,0,0-27.35,4-34.08,2.44,0,0-16.4-49.45-13.68-89.14Z" fill="#2f2e41" data-secondary="true"/>
<path d="M632.1,531s-1.12,5.63-4.69,8.07c0,0,9.12,8.5,16.14,5.82a4.16,4.16,0,0,0,3-4.7V531Z" fill="#f9b499"/>
<path d="M680.33,531v8.07s3,6,11.83,2.81c0,0,5.06-1.12,4.88-2.81,0,0-4.13-3.19-2.63-8.07Z" fill="#f9b499"/>
<path d="M375.16,457.49s11.28,48.59,6.37,56.57c-6.43,10.44-74.91,16.74-74.91,16.74h151s18.93-5.31,13.24-20.53c-4.4-11.77-25.54-52.72-25.54-52.72Z" fill="#2f2e41" data-secondary="true"/>
<path d="M371.84,457.49s12.05,49,6.38,56.57-71.6,13.38-71.6,13.38H458.35s12.75-5.16,9.2-17.1S442,457.62,442,457.62Z" fill="#2f2e41" data-secondary="true"/>
<path d="M442,457.49H371.84s7.12,29,7.83,45.85h85.26C458,487.17,442,457.49,442,457.49Z" fill="#2f2e41" data-secondary="true"/>
<rect x="306.62" y="527.67" width="151.02" height="3.12" fill="#2f2e41" data-secondary="true"/>
<rect x="184.26" y="120.54" width="455.64" height="341.73" rx="12.08" fill="#2f2e41" data-secondary="true"/>
<rect x="173.51" y="120.54" width="455.64" height="341.73" rx="12.08" fill="#2f2e41" data-secondary="true"/>
<rect x="173.51" y="120.54" width="455.64" height="341.73" rx="12.08" opacity="0.2"/>
<path d="M173.51,409.17H629.17v41a12.08,12.08,0,0,1-12.08,12.09H185.61a12.08,12.08,0,0,1-12.08-12.09h0v-41Z" fill="#fff" opacity="0.2"/>
<rect x="196.44" y="141.8" width="409.8" height="241.43" fill="#fff"/>
<path d="M409.81,435.72a8.41,8.41,0,1,0-8.4,8.4h0A8.4,8.4,0,0,0,409.81,435.72Z" fill="#2f2e41" data-secondary="true"/>
<rect x="196.44" y="141.8" width="409.8" height="241.43" fill="#fff"/>
<rect x="196.44" y="148.16" width="409.8" height="22.97" fill="#bcbec0"/>
<rect x="585.7" y="154.83" width="10.93" height="1.76" fill="#ebebeb"/>
<rect x="585.7" y="162.71" width="10.93" height="1.76" fill="#ebebeb"/>
<rect x="585.7" y="158.82" width="10.93" height="1.76" fill="#ebebeb"/>
<path d="M576.87,163.75a5,5,0,0,1-1.39.58,4.82,4.82,0,1,1,1.39-.58Z" fill="#ccc"/>
<path d="M575.8,159.1a1.47,1.47,0,1,1-1.47-1.47,1.47,1.47,0,0,1,1.47,1.47Z" fill="#fff"/>
<path d="M576.87,163.14v.61a5,5,0,0,1-1.39.58,4.9,4.9,0,0,1-3.68-.58v-.61a2.54,2.54,0,0,1,5.07,0Z" fill="#fff"/>
<polygon points="567.04 159.69 563.51 159.69 565.28 161.82 567.04 159.69" fill="#fff"/>
<rect x="274.83" y="154.83" width="69.3" height="9.64" fill="#fff"/>
<rect x="334.48" y="154.83" width="9.64" height="9.64" fill="#d1d3d4"/>
<path d="M342.3,162.3l-.88.66-1.62-2.14-.59-.77a1.86,1.86,0,0,0,.34-.19,1.42,1.42,0,0,0,.46-.59l.63.84Z" fill="#fff"/>
<path d="M340.58,157.28a2.38,2.38,0,1,0-.78,3.54,1.94,1.94,0,0,0,.34-.21,2.37,2.37,0,0,0,.5-.5A2.42,2.42,0,0,0,340.58,157.28Zm-1,2.58a1.86,1.86,0,0,1-.34.19,1.43,1.43,0,0,1-1.84-.81,1.42,1.42,0,1,1,2.65-1,1.44,1.44,0,0,1,0,1.06A1.42,1.42,0,0,1,339.55,159.86Z" fill="#fff"/>
<rect x="276.79" y="156.79" width="0.5" height="5.73" fill="#d1d3d4"/>
<rect x="214.95" y="154.87" width="9.64" height="9.64" fill="#d1d3d4"/>
<polygon points="221.07 162.92 217.64 159.76 221.06 156.47 221.6 157.02 218.76 159.75 221.6 162.35 221.07 162.92" fill="#fff"/>
<rect x="225.85" y="154.87" width="9.64" height="9.64" fill="#d1d3d4"/>
<polygon points="229.37 156.46 232.81 159.62 229.38 162.91 228.84 162.36 231.68 159.63 228.84 157.03 229.37 156.46" fill="#fff"/>
<rect x="196.44" y="171.13" width="78.39" height="212.1" fill="#ccc"/>
<path d="M247.22,253.58a22,22,0,1,1,7.15-7.16A22.06,22.06,0,0,1,247.22,253.58Z" fill="#fff"/>
<path d="M242.33,232.31a6.71,6.71,0,1,1-6.71-6.71h0a6.7,6.7,0,0,1,6.7,6.7Z" fill="#bcbec0"/>
<path d="M247.22,250.81v2.77a22.06,22.06,0,0,1-23.19,0v-2.76a11.62,11.62,0,0,1,23.19,0Z" fill="#bcbec0"/>
<circle cx="251.45" cy="251.78" r="5.1" fill="#d1d3d4"/>
<rect x="247.95" y="250.96" width="4.78" height="0.29" transform="translate(-104.24 250.56) rotate(-45)" fill="#fff"/>
<rect x="248.48" y="251.3" width="4.78" height="0.71" transform="translate(-104.47 251.1) rotate(-45)" fill="#fff"/>
<rect x="249.18" y="252" width="4.78" height="0.71" transform="translate(-104.76 251.74) rotate(-44.99)" fill="#fff"/>
<rect x="249.72" y="252.73" width="4.78" height="0.29" transform="translate(-104.97 252.33) rotate(-45)" fill="#fff"/>
<polygon points="250.27 254.91 248.78 254.97 248.24 254.43 248.3 252.94 250.27 254.91" fill="#fff"/>
<polygon points="248.65 255 248.2 255.02 248.21 254.57 248.65 255" fill="#fff"/>
<path d="M252.24,249l1.93,1.93s1.06-1.17.13-2.1S252.24,249,252.24,249Z" fill="#fff"/>
<path d="M218,276.35V273.5a.26.26,0,0,1,.31-.22.28.28,0,0,1,.22.22v1.16h1.26V273.5a.26.26,0,0,1,.31-.22.28.28,0,0,1,.22.22v2.85a.27.27,0,0,1-.22.32.26.26,0,0,1-.31-.22.17.17,0,0,1,0-.1v-1.16H218.5v1.16a.27.27,0,0,1-.22.32.26.26,0,0,1-.31-.22A.17.17,0,0,1,218,276.35Z" fill="#fff"/>
<path d="M221.19,273.5a.27.27,0,0,1,.26-.27h0a.27.27,0,0,1,.27.27v2.85a.27.27,0,0,1-.27.27.26.26,0,0,1-.26-.26h0Z" fill="#fff"/>
<path d="M222.52,275.78a.26.26,0,0,1,.35,0,1.68,1.68,0,0,0,1,.38,1,1,0,0,0,.6-.19.39.39,0,0,0,.21-.35.28.28,0,0,0,0-.15.54.54,0,0,0-.15-.15,2.14,2.14,0,0,0-.66-.22h0a2.85,2.85,0,0,1-.63-.19,1,1,0,0,1-.44-.38.7.7,0,0,1-.12-.4.87.87,0,0,1,.39-.7,1.41,1.41,0,0,1,.84-.25,1.88,1.88,0,0,1,1.06.38.26.26,0,0,1,.06.34.25.25,0,0,1-.34.08h0a1.41,1.41,0,0,0-.78-.31.88.88,0,0,0-.54.16.36.36,0,0,0-.18.3.17.17,0,0,0,0,.14.53.53,0,0,0,.13.13,1.59,1.59,0,0,0,.6.21h0a3.22,3.22,0,0,1,.67.2,1,1,0,0,1,.48.41.72.72,0,0,1,.12.4,1,1,0,0,1-.42.76,1.48,1.48,0,0,1-.89.27,2.1,2.1,0,0,1-1.24-.48.27.27,0,0,1-.08-.35Z" fill="#fff"/>
<path d="M227.86,273.77h-.79v2.58a.25.25,0,0,1-.25.27h0a.27.27,0,0,1-.27-.27v-2.58h-.76a.27.27,0,0,1-.26-.27.26.26,0,0,1,.26-.27h2.07a.27.27,0,0,1,.26.27h0A.27.27,0,0,1,227.86,273.77Z" fill="#fff"/>
<path d="M231.32,273.65a1.75,1.75,0,0,1,0,2.45,1.53,1.53,0,0,1-1.15.52,1.64,1.64,0,0,1-1.19-.52,1.83,1.83,0,0,1,0-2.45,1.63,1.63,0,0,1,1.19-.51A1.52,1.52,0,0,1,231.32,273.65Zm-.06,1.23a1.25,1.25,0,0,0-.32-.85,1.06,1.06,0,0,0-1.5-.06l-.05.06a1.25,1.25,0,0,0,0,1.69,1,1,0,0,0,1.46.09l.09-.09A1.24,1.24,0,0,0,231.26,274.88Z" fill="#fff"/>
<path d="M235,276.22a.26.26,0,0,1-.16.33h-.12a.38.38,0,0,1-.19-.05.52.52,0,0,1-.16-.17,1.42,1.42,0,0,1-.1-.58.36.36,0,0,0-.2-.35.81.81,0,0,0-.27-.11h-.57v1a.28.28,0,0,1-.27.27.27.27,0,0,1-.27-.27v-2.85a.26.26,0,0,1,.26-.27h.89a1.05,1.05,0,0,1,1,1.05,1,1,0,0,1-.37.78.61.61,0,0,1,.17.19.87.87,0,0,1,.16.52,1.31,1.31,0,0,0,0,.28A.29.29,0,0,1,235,276.22Zm-.68-1.94a.5.5,0,0,0-.5-.5h-.59v1h.61a.48.48,0,0,0,.48-.47Z" fill="#fff"/>
<path d="M238,273.69l-1,1.35v1.31a.25.25,0,0,1-.25.27h0a.27.27,0,0,1-.27-.27v-1.28l-1-1.35a.27.27,0,0,1,0-.37.26.26,0,0,1,.37,0,.1.1,0,0,1,0,.05l.83,1.13.82-1.13a.25.25,0,1,1,.4.28Z" fill="#fff"/>
<rect x="213.59" y="284.62" width="44.09" height="7.63" opacity="0.2"/>
<rect x="213.59" y="284.62" width="0.86" height="7.63" fill="#bcbec0"/>
<path d="M217.81,288.39a1.79,1.79,0,0,1,1.78-1.74,1.83,1.83,0,0,1,1.12.38.28.28,0,0,1,0,.38.27.27,0,0,1-.38.06,1.23,1.23,0,0,0-.78-.27,1.25,1.25,0,0,0-.87.35,1.16,1.16,0,0,0-.36.84,1.18,1.18,0,0,0,.36.85,1.3,1.3,0,0,0,.87.35,1.23,1.23,0,0,0,.78-.27.28.28,0,0,1,.34.45,1.88,1.88,0,0,1-1.12.37A1.78,1.78,0,0,1,217.81,288.39Z" fill="#fff"/>
<path d="M223.94,289.74a.26.26,0,0,1-.16.33h-.12a.36.36,0,0,1-.2-.06.61.61,0,0,1-.15-.17,1.27,1.27,0,0,1-.1-.58.39.39,0,0,0-.06-.21.4.4,0,0,0-.14-.15,1,1,0,0,0-.27-.11h-.57v1.05a.28.28,0,0,1-.27.27.28.28,0,0,1-.28-.27V287a.26.26,0,0,1,.26-.27h.88a1,1,0,0,1,1,1,1.06,1.06,0,0,1-.38.81.69.69,0,0,1,.17.17.91.91,0,0,1,.15.53v.28A.31.31,0,0,1,223.94,289.74Zm-.68-1.94a.5.5,0,0,0-.5-.5h-.59v1h.59a.5.5,0,0,0,.5-.48Z" fill="#fff"/>
<path d="M224.72,289.87V287a.26.26,0,0,1,.25-.27h1.6a.26.26,0,0,1,.26.27.27.27,0,0,1-.26.27h-1.32v.88h1.14a.27.27,0,0,1,0,.54h-1.14v.88h1.32a.27.27,0,1,1,0,.54H225A.27.27,0,0,1,224.72,289.87Z" fill="#fff"/>
<path d="M229.32,289.34h-1.18l-.23.63a.29.29,0,0,1-.26.17h-.09a.27.27,0,0,1-.16-.35l1.07-2.85a.29.29,0,0,1,.26-.17.26.26,0,0,1,.25.17l1.07,2.85a.26.26,0,0,1-.16.35h-.09a.27.27,0,0,1-.25-.17Zm-.2-.53-.39-1.05-.4,1.05Z" fill="#fff"/>
<path d="M232.3,287.29h-.76v2.58a.28.28,0,0,1-.22.32A.27.27,0,0,1,231,290v-2.68h-.76A.27.27,0,0,1,230,287a.25.25,0,0,1,.25-.27h2.08a.27.27,0,0,1,.27.27A.28.28,0,0,1,232.3,287.29Z" fill="#fff"/>
<path d="M233.37,289.87V287a.25.25,0,0,1,.25-.27h1.59a.27.27,0,0,1,.27.27.28.28,0,0,1-.27.27h-1.3v.88H235a.27.27,0,0,1,0,.54h-1.12v.88h1.3a.27.27,0,1,1,0,.54h-1.57A.26.26,0,0,1,233.37,289.87Z" fill="#fff"/>
<path d="M238.22,289.87a.26.26,0,0,1-.26.27.27.27,0,0,1-.27-.27v-2.81h0a.3.3,0,0,1,.11-.23.26.26,0,0,1,.36.06h0l1.56,2.16v-2a.27.27,0,1,1,.53,0h0v2.81a.27.27,0,0,1-.26.27.27.27,0,0,1-.21-.09h0l-1.55-2.16Z" fill="#fff"/>
<path d="M241.11,289.87V287a.25.25,0,0,1,.25-.27H243a.27.27,0,0,1,.26.27.28.28,0,0,1-.26.27h-1.32v.88h1.13a.27.27,0,1,1,0,.54h-1.13v.88H243a.27.27,0,1,1,0,.54h-1.59A.26.26,0,0,1,241.11,289.87Z" fill="#fff"/>
<path d="M248.44,287.15,247.25,290H247l-.62-1.51-.87,1.51h-.21l-1.19-2.83a.26.26,0,0,1,.13-.34h0a.26.26,0,0,1,.33.13v0l1,2.24.63-1.49a.28.28,0,0,1,.5,0l.62,1.49,1-2.24a.28.28,0,0,1,.36-.15h0A.27.27,0,0,1,248.44,287.15Z" fill="#fff"/>
<rect x="213.59" y="319.91" width="44.09" height="7.63" fill="#bcbec0"/>
<path d="M232,322.5a1.76,1.76,0,0,1,0,2.45,1.53,1.53,0,0,1-1.15.52,1.62,1.62,0,0,1-1.19-.52,1.78,1.78,0,0,1,0-2.45,1.62,1.62,0,0,1,1.19-.52A1.53,1.53,0,0,1,232,322.5Zm-.06,1.22a1.25,1.25,0,0,0-.33-.84,1,1,0,0,0-1.46-.09l-.09.09a1.29,1.29,0,0,0-.34.84,1.26,1.26,0,0,0,.34.84,1,1,0,0,0,1.47.09l.08-.09a1.23,1.23,0,0,0,.33-.87Z" fill="#fff"/>
<path d="M234.61,324.12H234v1.05a.27.27,0,0,1-.54,0v-2.85a.27.27,0,0,1,.25-.28h.88a1,1,0,0,1,0,2.08Zm-.59-.54h.59a.51.51,0,0,0,.63-.34.5.5,0,0,0-.35-.62.45.45,0,0,0-.28,0H234Z" fill="#fff"/>
<path d="M236.3,325.17v-2.85a.26.26,0,0,1,.25-.28h1.61a.28.28,0,0,1,0,.55h-1.32v.88H238a.27.27,0,0,1,0,.54h-1.13v.89h1.32a.27.27,0,0,1,0,.54h-1.59A.27.27,0,0,1,236.3,325.17Z" fill="#fff"/>
<path d="M239.7,325.17a.27.27,0,0,1-.21.32.27.27,0,0,1-.32-.22v-2.92h0a.28.28,0,0,1,.11-.22.26.26,0,0,1,.36.06h0l1.56,2.16v-2a.27.27,0,0,1,.54,0v2.82a.28.28,0,0,1-.27.27.25.25,0,0,1-.2-.1h0l-1.55-2.16Z" fill="#fff"/>
<rect x="213.59" y="332.33" width="44.09" height="7.63" fill="#d1d3d4"/>
<path d="M229.61,337.6v-2.91a.27.27,0,0,1,.21-.31.27.27,0,0,1,.32.21.17.17,0,0,1,0,.1v2.59h1.32a.27.27,0,0,1,0,.53h-1.59A.26.26,0,0,1,229.61,337.6Z" fill="#fff"/>
<path d="M234.82,334.9a1.76,1.76,0,0,1,0,2.45,1.59,1.59,0,0,1-1.15.51,1.71,1.71,0,0,1-1.2-.51,1.82,1.82,0,0,1,0-2.45,1.64,1.64,0,0,1,1.2-.52A1.55,1.55,0,0,1,234.82,334.9Zm-.06,1.22a1.25,1.25,0,0,0-.33-.84,1,1,0,0,0-1.46-.09l-.09.09a1.21,1.21,0,0,0-.33.84,1.25,1.25,0,0,0,.33.84,1,1,0,0,0,1.46.09l.09-.09a1.24,1.24,0,0,0,.32-.84Z" fill="#fff"/>
<path d="M237.79,337.07h-1.18l-.23.62a.28.28,0,0,1-.26.17H236a.28.28,0,0,1-.16-.35l1.07-2.85a.27.27,0,0,1,.26-.17.25.25,0,0,1,.25.17l1.07,2.85a.27.27,0,0,1-.16.35h-.09a.26.26,0,0,1-.25-.17Zm-.2-.54-.39-1-.4,1Z" fill="#fff"/>
<path d="M239.18,337.6v-2.91a.27.27,0,0,1,.25-.27H240a1.7,1.7,0,1,1,0,3.39h-.57A.26.26,0,0,1,239.18,337.6Zm.54-.27h.3a1.17,1.17,0,0,0,1.16-1.16A1.16,1.16,0,0,0,240,335h-.3Z" fill="#fff"/>
<path d="M217.86,302.81a.24.24,0,0,1,.34,0h0a1.56,1.56,0,0,0,1,.37,1,1,0,0,0,.6-.17.47.47,0,0,0,.21-.35.43.43,0,0,0,0-.16.4.4,0,0,0-.15-.14,1.69,1.69,0,0,0-.65-.23h0a2.7,2.7,0,0,1-.63-.19,1,1,0,0,1-.45-.38.6.6,0,0,1-.11-.39.9.9,0,0,1,.38-.72,1.41,1.41,0,0,1,.84-.25,1.83,1.83,0,0,1,1.06.39.25.25,0,0,1,.07.34.25.25,0,0,1-.35.07,1.38,1.38,0,0,0-.78-.31,1,1,0,0,0-.54.17.35.35,0,0,0-.18.31.29.29,0,0,0,0,.13l.13.13a1.66,1.66,0,0,0,.6.21h0a3,3,0,0,1,.67.2,1.21,1.21,0,0,1,.49.4.78.78,0,0,1,.11.42,1,1,0,0,1-.41.74,1.45,1.45,0,0,1-.89.28,2.08,2.08,0,0,1-1.24-.48.26.26,0,0,1-.12-.35A.08.08,0,0,1,217.86,302.81Z" fill="#fff"/>
<path d="M223.2,300.81h-.77v2.58a.26.26,0,0,1-.26.26h0a.26.26,0,0,1-.27-.26v-2.58h-.77a.28.28,0,0,1-.26-.28.26.26,0,0,1,.26-.26h2.07a.25.25,0,0,1,.26.26h0A.28.28,0,0,1,223.2,300.81Z" fill="#fff"/>
<path d="M226.66,300.68a1.82,1.82,0,0,1,.49,1.23,1.8,1.8,0,0,1-.49,1.23,1.55,1.55,0,0,1-1.15.51,1.63,1.63,0,0,1-1.19-.51,1.82,1.82,0,0,1,0-2.46,1.61,1.61,0,0,1,1.19-.51A1.58,1.58,0,0,1,226.66,300.68Zm-.06,1.23a1.29,1.29,0,0,0-.33-.85,1.06,1.06,0,0,0-1.49-.06l-.06.06a1.28,1.28,0,0,0-.33.85,1.21,1.21,0,0,0,.33.84,1,1,0,0,0,1.46.09l.09-.09a1.25,1.25,0,0,0,.33-.84Z" fill="#fff"/>
<path d="M227.81,301.91a1.75,1.75,0,0,1,1.77-1.74,1.8,1.8,0,0,1,1.12.38.28.28,0,0,1-.33.44h0a1.28,1.28,0,0,0-.78-.26,1.35,1.35,0,0,0-.87.35,1.21,1.21,0,0,0-.35.84,1.19,1.19,0,0,0,.35.84,1.25,1.25,0,0,0,.87.35,1.17,1.17,0,0,0,.78-.26.3.3,0,0,1,.39.05.28.28,0,0,1-.05.39,1.8,1.8,0,0,1-2.89-1.37Z" fill="#fff"/>
<path d="M231.69,303.39v-2.83a.27.27,0,0,1,.22-.32.27.27,0,0,1,.31.22.17.17,0,0,1,0,.1V302l1.57-1.58a.27.27,0,0,1,.37,0h0a.28.28,0,0,1,0,.38l-1.07,1.07,1.08,1.4a.27.27,0,0,1,0,.37h0a.23.23,0,0,1-.18,0,.25.25,0,0,1-.19-.09l-1.08-1.39-.51.52v.68a.27.27,0,0,1-.31.22.28.28,0,0,1-.22-.22Z" fill="#fff"/>
<path d="M214.92,205.39v-7.57a.7.7,0,0,1,.7-.71.72.72,0,0,1,.73.71h0v6.85h3.47a.71.71,0,0,1,.63.79.72.72,0,0,1-.63.63h-4.2A.7.7,0,0,1,214.92,205.39Z" fill="#fff"/>
<path d="M228.72,198.22a4.72,4.72,0,0,1,0,6.5,4.22,4.22,0,0,1-3.07,1.37,4.3,4.3,0,0,1-3.14-1.37,4.84,4.84,0,0,1,0-6.5,4.3,4.3,0,0,1,3.14-1.37A4.18,4.18,0,0,1,228.72,198.22Zm-.17,3.26a3.32,3.32,0,0,0-.87-2.25,2.75,2.75,0,0,0-3.89-.22l-.22.22a3.32,3.32,0,0,0-.87,2.25,3.22,3.22,0,0,0,.87,2.22,2.74,2.74,0,0,0,3.87.25,2.83,2.83,0,0,0,.24-.25,3.17,3.17,0,0,0,.87-2.19Z" fill="#fff"/>
<path d="M238.49,205a.72.72,0,0,1-.45.9h-.28a.84.84,0,0,1-.49-.15,1.18,1.18,0,0,1-.42-.44,3.56,3.56,0,0,1-.27-1.54,1,1,0,0,0-.16-.55,1.22,1.22,0,0,0-.37-.38,2.77,2.77,0,0,0-.73-.31h-1.51v2.83a.71.71,0,0,1-.72.7.7.7,0,0,1-.7-.7v-7.57a.69.69,0,0,1,.68-.71h2.32a2.74,2.74,0,0,1,2.75,2.73v0a2.73,2.73,0,0,1-1,2.1,2,2,0,0,1,.45.47,2.5,2.5,0,0,1,.42,1.4,3.17,3.17,0,0,0,.06.75A.68.68,0,0,1,238.49,205Zm-1.8-5.16a1.33,1.33,0,0,0-1.31-1.34h-1.59v2.65h1.58a1.31,1.31,0,0,0,1.32-1.31Z" fill="#fff"/>
<path d="M240.57,205.39v-7.57a.69.69,0,0,1,.68-.71h4.21a.71.71,0,1,1,0,1.42H242v2.35h3a.73.73,0,0,1,.63.8.72.72,0,0,1-.63.63h-3v2.36h3.48a.71.71,0,0,1,.63.79.72.72,0,0,1-.63.63h-4.2A.7.7,0,0,1,240.57,205.39Z" fill="#fff"/>
<path d="M255.91,197.82v7.57a.73.73,0,0,1-.73.7.7.7,0,0,1-.7-.69h0V200l-1.84,2.57a.72.72,0,0,1-.59.3h0a.73.73,0,0,1-.59-.3L249.64,200v5.41a.73.73,0,0,1-.72.71.71.71,0,0,1-.72-.71v-7.57a.73.73,0,0,1,.71-.71h0a.7.7,0,0,1,.57.29l2.56,3.54,2.54-3.54a.73.73,0,0,1,.58-.29h0A.74.74,0,0,1,255.91,197.82Z" fill="#fff"/>
<path d="M534.93,160.88v-2.83a.27.27,0,0,1,.21-.31.27.27,0,0,1,.32.21.17.17,0,0,1,0,.1v2.59h1.34a.27.27,0,0,1,0,.54h-1.59a.26.26,0,0,1-.28-.26Z" fill="#fff"/>
<path d="M540.14,158.18a1.8,1.8,0,0,1,0,2.45,1.58,1.58,0,0,1-1.17.52,1.64,1.64,0,0,1-1.19-.52,1.82,1.82,0,0,1,0-2.45,1.64,1.64,0,0,1,1.19-.52A1.58,1.58,0,0,1,540.14,158.18Zm-.07,1.22a1.25,1.25,0,0,0-.33-.84,1,1,0,0,0-1.46-.09l-.09.09a1.25,1.25,0,0,0-.33.84,1.19,1.19,0,0,0,.33.84,1,1,0,0,0,1.35.2,1,1,0,0,0,.2-.2A1.23,1.23,0,0,0,540.07,159.4Z" fill="#fff"/>
<path d="M541.42,159.41a1.76,1.76,0,0,1,1.77-1.75h0a1.8,1.8,0,0,1,1.12.38.28.28,0,0,1,0,.39h0a.27.27,0,0,1-.38,0h0a1.38,1.38,0,0,0-.78-.26,1.24,1.24,0,0,0-.87.36,1.17,1.17,0,0,0,0,1.64l0,0a1.2,1.2,0,0,0,.87.36,1.3,1.3,0,0,0,.67-.19v-.66h-.7a.28.28,0,0,1-.27-.28.27.27,0,0,1,.27-.27h1a.26.26,0,0,1,.28.26h0v1.15h0a.22.22,0,0,1-.09.12,1.79,1.79,0,0,1-2.51-.26,1.83,1.83,0,0,1-.4-1.1Z" fill="#fff"/>
<path d="M545.51,158.05a.26.26,0,0,1,.25-.27h0a.28.28,0,0,1,.27.27h0V161a.27.27,0,0,1-.27.27h0a.26.26,0,0,1-.26-.26h0Z" fill="#fff"/>
<path d="M547.52,160.88a.27.27,0,1,1-.53,0h0v-2.83h0a.32.32,0,0,1,.1-.22.27.27,0,0,1,.37.06h0l1.57,2.16v-2a.26.26,0,0,1,.26-.26.26.26,0,0,1,.26.26h0v2.82a.26.26,0,0,1-.26.27.25.25,0,0,1-.2-.09h0l-1.55-2.16Z" fill="#fff"/>
<path d="M493.68,158.05V161a.29.29,0,0,1-.27.27.28.28,0,0,1-.28-.27v-2.12l-.69,1a.24.24,0,0,1-.21.11h0a.28.28,0,0,1-.23-.11l-.69-1v2a.28.28,0,0,1-.22.32.27.27,0,0,1-.32-.22v-2.93a.28.28,0,0,1,.26-.27h0a.27.27,0,0,1,.22.12l1,1.34,1-1.34a.29.29,0,0,1,.23-.12h0A.3.3,0,0,1,493.68,158.05Z" fill="#fff"/>
<path d="M496.26,160.35h-1.18l-.23.63a.27.27,0,0,1-.25.17h-.1a.29.29,0,0,1-.16-.35l1.07-2.85a.27.27,0,0,1,.26-.17.26.26,0,0,1,.25.17L497,160.8a.29.29,0,0,1-.16.35h-.09a.27.27,0,0,1-.25-.17Zm-.19-.53-.4-1-.4,1Z" fill="#fff"/>
<path d="M499.9,160.75a.26.26,0,0,1-.17.33h-.11a.3.3,0,0,1-.19-.05.55.55,0,0,1-.16-.18,1.27,1.27,0,0,1-.1-.58.46.46,0,0,0-.05-.2.54.54,0,0,0-.15-.15.81.81,0,0,0-.27-.11h-.57v1.05a.28.28,0,0,1-.27.27.27.27,0,0,1-.27-.27v-2.81a.26.26,0,0,1,.25-.27h.88a1,1,0,0,1,.66,1.84.73.73,0,0,1,.17.18.94.94,0,0,1,.16.52,1.41,1.41,0,0,0,0,.29A.25.25,0,0,1,499.9,160.75Zm-.68-1.94a.5.5,0,0,0-.5-.5h-.59v1h.59a.48.48,0,0,0,.5-.47Z" fill="#fff"/>
<path d="M500.68,160.88v-2.83a.27.27,0,0,1,.32-.21.28.28,0,0,1,.22.21v1.4l1.56-1.58a.27.27,0,0,1,.38.07.26.26,0,0,1,0,.31l-1.06,1.06,1.07,1.42a.24.24,0,0,1,0,.35h0a.22.22,0,0,1-.17.07.29.29,0,0,1-.2-.09l-1-1.38-.5.51v.69a.28.28,0,0,1-.22.32.27.27,0,0,1-.32-.22v-.1Z" fill="#fff"/>
<path d="M504.14,160.88v-2.83a.26.26,0,0,1,.25-.27H506a.28.28,0,0,1,.27.27.29.29,0,0,1-.27.28h-1.31v.88h1.14a.28.28,0,0,1,.28.27.27.27,0,0,1-.27.27H504.7v.89H506a.27.27,0,0,1,.27.27.28.28,0,0,1-.27.27h-1.57a.27.27,0,0,1-.3-.24Z" fill="#fff"/>
<path d="M509.09,158.3h-.78v2.58a.25.25,0,0,1-.25.27h0a.27.27,0,0,1-.27-.27V158.3H507a.27.27,0,0,1-.22-.25.27.27,0,0,1,.25-.27h2.08a.27.27,0,0,1,.27.27h0a.29.29,0,0,1-.3.25Z" fill="#fff"/>
<path d="M450.74,159.83h-.59v1a.27.27,0,1,1-.54,0h0v-2.83a.28.28,0,0,1,.27-.27h.86a1,1,0,0,1,0,2.08h0Zm-.59-.54h.59a.5.5,0,0,0,.28-1,.45.45,0,0,0-.28,0h-.59Z" fill="#fff"/>
<path d="M454.67,160.75a.26.26,0,0,1-.16.33h-.11a.27.27,0,0,1-.18-.05.4.4,0,0,1-.16-.18,1.15,1.15,0,0,1-.1-.58.36.36,0,0,0-.06-.2.54.54,0,0,0-.15-.15.81.81,0,0,0-.27-.11h-.57v1.05a.27.27,0,0,1-.22.32.27.27,0,0,1-.31-.22.17.17,0,0,1,0-.1v-2.81a.26.26,0,0,1,.25-.27h.88a1,1,0,0,1,1,1,1,1,0,0,1-.38.79.69.69,0,0,1,.16.18,1,1,0,0,1,.17.52.71.71,0,0,0,0,.29A.22.22,0,0,1,454.67,160.75Zm-.68-1.94a.48.48,0,0,0-.48-.5h-.61v1h.6a.48.48,0,0,0,.49-.47Z" fill="#fff"/>
<path d="M455.49,158.05a.27.27,0,0,1,.26-.27h0a.28.28,0,0,1,.27.27V161a.27.27,0,0,1-.54,0h0Z" fill="#fff"/>
<path d="M456.78,159.4a1.79,1.79,0,0,1,1.78-1.74,1.83,1.83,0,0,1,1.12.38.28.28,0,0,1,0,.38.27.27,0,0,1-.38.06,1.23,1.23,0,0,0-.78-.27,1.25,1.25,0,0,0-.87.35,1.16,1.16,0,0,0,0,1.68,1.25,1.25,0,0,0,1.65.09.26.26,0,0,1,.39,0,.27.27,0,0,1,0,.39l-.08.07a1.8,1.8,0,0,1-1.12.38A1.78,1.78,0,0,1,456.78,159.4Z" fill="#fff"/>
<path d="M460.7,158.05a.27.27,0,0,1,.25-.27h0a.28.28,0,0,1,.27.27V161a.27.27,0,0,1-.27.27.26.26,0,0,1-.26-.26h0Z" fill="#fff"/>
<path d="M462.68,160.88a.27.27,0,0,1-.54,0v-2.83h0a.29.29,0,0,1,.11-.22.27.27,0,0,1,.37.06h0l1.58,2.17v-2a.27.27,0,0,1,.53,0v2.82a.27.27,0,0,1-.26.27.27.27,0,0,1-.21-.09h0l-1.55-2.16Z" fill="#fff"/>
<path d="M465.48,159.41a1.76,1.76,0,0,1,1.77-1.75h0a1.8,1.8,0,0,1,1.11.38.28.28,0,0,1,.12.37.27.27,0,0,1-.38.12.16.16,0,0,1-.08-.06,1.25,1.25,0,0,0-1.64.1,1.17,1.17,0,0,0,0,1.64l0,0a1.24,1.24,0,0,0,.87.36,1.3,1.3,0,0,0,.67-.19v-.66h-.7a.28.28,0,0,1-.27-.28.27.27,0,0,1,.27-.27h1a.26.26,0,0,1,.28.26h0v1.07a.11.11,0,0,1,0,.08h0a.2.2,0,0,1-.08.12,1.79,1.79,0,0,1-2.51-.26,1.83,1.83,0,0,1-.4-1.1Z" fill="#fff"/>
<rect x="196.44" y="141.75" width="409.8" height="6.42" fill="#d1d3d4"/>
<path d="M201.53,145a1.59,1.59,0,1,1-1.58-1.6h0A1.59,1.59,0,0,1,201.53,145Z" fill="#c7c7c7"/>
<path d="M208,145a1.6,1.6,0,1,1-1.6-1.6h0A1.6,1.6,0,0,1,208,145Z" fill="#fff"/>
<path d="M214.49,145a1.6,1.6,0,1,1-1.6-1.6h0A1.6,1.6,0,0,1,214.49,145Z" fill="#bcbec0"/>
<rect x="397.26" y="175.66" width="70.46" height="40.22" fill="#d1d3d4"/>
<polygon points="464.9 175.69 454.77 175.69 459.84 168.27 464.9 175.69" fill="#d1d3d4"/>
<rect x="442.32" y="204.8" width="19.63" height="6.84" fill="#ccc"/>
<path d="M447.56,209.55a.27.27,0,0,1-.53,0v-2.81h0a.27.27,0,0,1,.11-.22.27.27,0,0,1,.37.06l1.57,2.17v-2a.26.26,0,0,1,.26-.26.26.26,0,0,1,.26.26v2.81a.28.28,0,0,1-.26.27.3.3,0,0,1-.21-.1h0l-1.55-2.15Z" fill="#fff"/>
<path d="M450.54,208.61a1.19,1.19,0,0,1,1.17-1.21h0a1.15,1.15,0,0,1,1.17,1.12h0a.24.24,0,0,1-.25.2h-1.55a.65.65,0,0,0,.16.32.75.75,0,0,0,.47.21.74.74,0,0,0,.5-.12.29.29,0,0,1,.37,0,.22.22,0,0,1,0,.32,1.22,1.22,0,0,1-.87.32A1.2,1.2,0,0,1,450.54,208.61Zm.52-.24h1.38a.8.8,0,0,0-.72-.51A.68.68,0,0,0,451.06,208.37Z" fill="#fff"/>
<path d="M455.25,207.83l-.57.79.57.79a.24.24,0,0,1,0,.35.23.23,0,0,1-.16.06.36.36,0,0,1-.21-.11l-.49-.66-.48.66a.27.27,0,0,1-.2.11.22.22,0,0,1-.15-.06.25.25,0,0,1-.06-.35l.58-.79-.58-.79a.26.26,0,0,1,.1-.35.26.26,0,0,1,.31.06l.48.64.49-.64a.27.27,0,0,1,.37,0A.26.26,0,0,1,455.25,207.83Z" fill="#fff"/>
<path d="M457.35,207.66a.27.27,0,0,1-.27.27H457v1.35a.27.27,0,0,1,.26.27.27.27,0,0,1-.26.27h0a.55.55,0,0,1-.55-.54v-1.35h-.13a.27.27,0,0,1-.27-.27.26.26,0,0,1,.26-.26h.14v-.71a.28.28,0,0,1,.27-.26.26.26,0,0,1,.27.25h0v.71h.11A.27.27,0,0,1,457.35,207.66Z" fill="#fff"/>
<rect x="290.13" y="173.96" width="70.46" height="40.22" fill="#d1d3d4"/>
<polygon points="306.91 174.84 296.78 174.84 301.85 167.42 306.91 174.84" fill="#d1d3d4"/>
<rect x="295.4" y="192.64" width="48.19" height="1.29" fill="#fff"/>
<rect x="295.4" y="189.69" width="48.19" height="1.29" fill="#fff"/>
<rect x="295.4" y="195.6" width="42.67" height="1.29" fill="#fff"/>
<rect x="295.4" y="183.77" width="48.19" height="1.29" fill="#fff"/>
<rect x="295.4" y="180.81" width="48.19" height="1.29" fill="#fff"/>
<rect x="295.4" y="186.73" width="42.67" height="1.29" fill="#fff"/>
<rect x="295.4" y="198.56" width="52.46" height="1.29" fill="#fff"/>
<rect x="402.51" y="192.64" width="48.19" height="1.29" fill="#fff"/>
<rect x="402.51" y="189.69" width="48.19" height="1.29" fill="#fff"/>
<rect x="402.51" y="195.6" width="42.67" height="1.29" fill="#fff"/>
<rect x="402.51" y="183.77" width="48.19" height="1.29" fill="#fff"/>
<rect x="402.51" y="180.81" width="48.19" height="1.29" fill="#fff"/>
<rect x="402.51" y="186.73" width="42.67" height="1.29" fill="#fff"/>
<rect x="402.51" y="198.56" width="52.46" height="1.29" fill="#fff"/>
<rect x="335.2" y="203.09" width="19.63" height="6.84" fill="#ccc"/>
<path d="M340.43,207.84a.25.25,0,0,1-.26.26.26.26,0,0,1-.26-.26V205h0a.28.28,0,0,1,.11-.23.28.28,0,0,1,.37.06L342,207v-2a.27.27,0,1,1,.53,0v2.8a.27.27,0,0,1-.26.27A.27.27,0,0,1,342,208h0l-1.56-2.15Z" fill="#fff"/>
<path d="M343.42,206.9a1.19,1.19,0,0,1,1.17-1.21h0a1.17,1.17,0,0,1,1.17,1.13h0a.23.23,0,0,1-.25.19H344a.65.65,0,0,0,.16.32.68.68,0,0,0,.47.21.8.8,0,0,0,.5-.11.29.29,0,0,1,.37,0,.24.24,0,0,1,0,.32,1.32,1.32,0,0,1-.87.32A1.21,1.21,0,0,1,343.42,206.9Zm.52-.24h1.37a.78.78,0,0,0-.71-.51A.68.68,0,0,0,343.94,206.66Z" fill="#fff"/>
<path d="M348.13,206.12l-.57.79.57.8a.26.26,0,0,1,0,.35.34.34,0,0,1-.17.05.28.28,0,0,1-.2-.1l-.49-.67-.49.67a.23.23,0,0,1-.19.1.2.2,0,0,1-.15-.05.25.25,0,0,1-.06-.35l.58-.8-.58-.79a.25.25,0,0,1,.1-.34.23.23,0,0,1,.3.05l.49.65.49-.65a.28.28,0,0,1,.37,0A.26.26,0,0,1,348.13,206.12Z" fill="#fff"/>
<path d="M350.23,206a.29.29,0,0,1-.27.27h-.12v1.34a.27.27,0,0,1,.26.27.25.25,0,0,1-.25.27h0a.54.54,0,0,1-.54-.54v-1.34h-.13a.28.28,0,0,1-.28-.27.27.27,0,0,1,.27-.27h.14V205a.27.27,0,0,1,.27-.26.25.25,0,0,1,.27.25h0v.7H350A.28.28,0,0,1,350.23,206Z" fill="#fff"/>
<rect x="269.16" y="228.42" width="70.46" height="34.41" fill="#d1d3d4"/>
<polygon points="269.16 232.51 269.16 242.65 261.74 237.58 269.16 232.51" fill="#d1d3d4"/>
<path d="M275,236.94v-3.43a.33.33,0,0,1,.32-.32h0a.32.32,0,0,1,.32.32h0v1.4h1.51v-1.4a.32.32,0,0,1,.32-.32h0a.32.32,0,0,1,.32.32h0v3.43a.32.32,0,0,1-.32.32h0a.32.32,0,0,1-.32-.3v-1.42h-1.51v1.4a.32.32,0,0,1-.32.32h0a.32.32,0,0,1-.32-.3Z" fill="#fff"/>
<path d="M278.87,235.81a1.44,1.44,0,0,1,1.42-1.46h0a1.4,1.4,0,0,1,1.4,1.35h0a.06.06,0,0,1,0,.06.28.28,0,0,1-.3.23h-1.86a.82.82,0,0,0,.2.38.93.93,0,0,0,1.16.11.35.35,0,0,1,.43,0,.26.26,0,0,1,0,.37h0a1.45,1.45,0,0,1-2.06-.09,1.47,1.47,0,0,1-.39-1Zm.63-.28h1.65a1,1,0,0,0-.86-.62A.81.81,0,0,0,279.5,235.53Z" fill="#fff"/>
<path d="M284.28,234.66a.31.31,0,0,1-.31.31h0a.61.61,0,0,0-.35.11.77.77,0,0,0-.26.28,1.83,1.83,0,0,0-.25.48V237a.31.31,0,0,1-.62,0v-2.29a.31.31,0,0,1,.62,0h0l.13-.11a1.19,1.19,0,0,1,.73-.22.3.3,0,0,1,.31.28Z" fill="#fff"/>
<path d="M284.55,235.81a1.43,1.43,0,0,1,1.41-1.46h0a1.4,1.4,0,0,1,1.4,1.35h0a.06.06,0,0,1,0,.06.28.28,0,0,1-.3.23h-1.85a.84.84,0,0,0,.21.38.86.86,0,0,0,.55.26,1,1,0,0,0,.61-.15.35.35,0,0,1,.43,0,.27.27,0,0,1,0,.37h0a1.46,1.46,0,0,1-2.45-1.06Zm.63-.28h1.64a1,1,0,0,0-.86-.62.79.79,0,0,0-.81.62Z" fill="#fff"/>
<path d="M288.22,234.51a.48.48,0,0,0,.39-.52.43.43,0,0,1-.33-.39v0a.39.39,0,0,1,.37-.39h0c.25,0,.42.21.42.52v0a1.18,1.18,0,0,1-.28.85.85.85,0,0,1-.56.25.16.16,0,0,1-.17-.14v0A.17.17,0,0,1,288.22,234.51Z" fill="#fff"/>
<path d="M289.31,236.43a.3.3,0,0,1,.43,0,1.1,1.1,0,0,0,.64.26.93.93,0,0,0,.4-.12.23.23,0,0,0,.1-.17v-.06l-.08-.07a1.54,1.54,0,0,0-.47-.16h0a2.21,2.21,0,0,1-.5-.15.94.94,0,0,1-.4-.34.69.69,0,0,1-.1-.37.8.8,0,0,1,.35-.63,1.22,1.22,0,0,1,.71-.22,1.53,1.53,0,0,1,.86.32.32.32,0,0,1,.1.44.3.3,0,0,1-.42.07,1.06,1.06,0,0,0-.54-.21.64.64,0,0,0-.35.1.22.22,0,0,0-.09.13,0,0,0,0,0,0,.05.13.13,0,0,0,.07.06,1.23,1.23,0,0,0,.42.14h0a2,2,0,0,1,.53.16.9.9,0,0,1,.42.35.8.8,0,0,1,.11.38.84.84,0,0,1-.36.67,1.29,1.29,0,0,1-.76.24,1.76,1.76,0,0,1-1-.4.32.32,0,0,1-.06-.45Z" fill="#fff"/>
<path d="M296.23,234.66v2.2a1.38,1.38,0,0,1-1.32,1.43h-.08a1.36,1.36,0,0,1-.6-.14.3.3,0,0,1,.26-.54h0a.77.77,0,0,0,.34.08.75.75,0,0,0,.72-.53,1.18,1.18,0,0,1-.55.14,1.22,1.22,0,0,1-1.21-1.22v-1.37a.31.31,0,0,1,.61,0v1.39a.6.6,0,1,0,1.2,0h0v-1.37a.3.3,0,0,1,.29-.31h0A.32.32,0,0,1,296.23,234.66Z" fill="#fff"/>
<path d="M297.56,236.83a1.37,1.37,0,0,1-.41-1,1.44,1.44,0,0,1,.41-1,1.38,1.38,0,0,1,1-.45,1.33,1.33,0,0,1,1,.45,1.44,1.44,0,0,1,.41,1,1.37,1.37,0,0,1-.41,1,1.29,1.29,0,0,1-1,.45A1.31,1.31,0,0,1,297.56,236.83Zm.23-1a1,1,0,0,0,.2.61.77.77,0,0,0,.56.21.74.74,0,0,0,.53-.21.93.93,0,0,0,.23-.61.89.89,0,0,0-.23-.61.79.79,0,0,0-.53-.22.86.86,0,0,0-.56.22A1,1,0,0,0,297.79,235.82Z" fill="#fff"/>
<path d="M302,237.26a1.21,1.21,0,0,1-1.2-1.21v-1.39a.31.31,0,1,1,.61-.11v1.5a.59.59,0,0,0,.59.59.61.61,0,0,0,.61-.59h0v-1.39a.32.32,0,0,1,.3-.31.33.33,0,0,1,.32.31v1.39A1.23,1.23,0,0,1,302,237.26Z" fill="#fff"/>
<path d="M306.17,234.66a.31.31,0,0,1-.31.31h0a.61.61,0,0,0-.35.11.77.77,0,0,0-.26.28,1.54,1.54,0,0,0-.24.48V237a.32.32,0,0,1-.37.26.33.33,0,0,1-.26-.26v-2.29a.32.32,0,0,1,.37-.26.35.35,0,0,1,.26.26h0a.63.63,0,0,1,.12-.11,1.21,1.21,0,0,1,.73-.22.29.29,0,0,1,.31.28Z" fill="#fff"/>
<path d="M308.68,238v-2.21h0v-1.16a.31.31,0,0,1,.31-.31h0a.36.36,0,0,1,.32.25,1.37,1.37,0,0,1,.78-.25,1.43,1.43,0,0,1,1.4,1.47h0a1.41,1.41,0,0,1-1.39,1.43h0a1.42,1.42,0,0,1-.78-.23v1a.32.32,0,0,1-.32.32A.3.3,0,0,1,308.68,238Zm.63-2.21a.77.77,0,0,0,.23.58.76.76,0,0,0,.55.24.73.73,0,0,0,.54-.24.86.86,0,0,0,0-1.17.75.75,0,0,0-.54-.24.72.72,0,0,0-.55.24.83.83,0,0,0-.2.59Z" fill="#fff"/>
<path d="M314.29,234.66a.29.29,0,0,1-.29.31h0a.54.54,0,0,0-.35.11.8.8,0,0,0-.27.28,2.16,2.16,0,0,0-.24.48V237a.31.31,0,0,1-.31.31h0a.31.31,0,0,1-.31-.31h0v-2.29a.3.3,0,0,1,.3-.3h0a.32.32,0,0,1,.31.3h0l.12-.11a1.24,1.24,0,0,1,.74-.22.29.29,0,0,1,.3.29Z" fill="#fff"/>
<path d="M315.15,236.83a1.46,1.46,0,0,1-.41-1,1.53,1.53,0,0,1,.41-1,1.38,1.38,0,0,1,1-.45,1.35,1.35,0,0,1,1,.45,1.43,1.43,0,0,1,.4,1,1.36,1.36,0,0,1-.4,1,1.27,1.27,0,0,1-1.94,0Zm.23-1a1,1,0,0,0,.21.61.77.77,0,0,0,.56.21.74.74,0,0,0,.53-.21.87.87,0,0,0,.22-.61.84.84,0,0,0-.22-.61.78.78,0,0,0-1.09,0,.94.94,0,0,0-.18.61Z" fill="#fff"/>
<path d="M319.28,234.16v.09h.18a.32.32,0,0,1,.32.32.33.33,0,0,1-.32.32h-.18v2a.32.32,0,1,1-.63,0v-2h-.15a.33.33,0,0,1-.33-.32.32.32,0,0,1,.32-.32h.16v-.09a1.2,1.2,0,0,1,.11-.56.67.67,0,0,1,.42-.37h.35a.32.32,0,0,1,0,.64h-.16A.39.39,0,0,0,319.28,234.16Z" fill="#fff"/>
<path d="M321.07,233.63a.31.31,0,0,1-.25.37.32.32,0,0,1-.37-.26.2.2,0,0,1,0-.11v-.12a.31.31,0,0,1,.25-.37.32.32,0,0,1,.37.26.2.2,0,0,1,0,.11Zm0,1.05V237a.31.31,0,0,1-.62,0v-2.27a.31.31,0,0,1,.25-.37.32.32,0,0,1,.37.26A.2.2,0,0,1,321.07,234.68Z" fill="#fff"/>
<path d="M322.31,233.19a.32.32,0,0,1,.32.32v3.43a.33.33,0,0,1-.38.27.36.36,0,0,1-.27-.27v-3.43A.34.34,0,0,1,322.31,233.19Z" fill="#fff"/>
<path d="M323.46,235.81a1.43,1.43,0,0,1,1.41-1.46h0a1.39,1.39,0,0,1,1.4,1.35h0a.06.06,0,0,1,0,.06.28.28,0,0,1-.3.23h-1.85a.82.82,0,0,0,.2.38.93.93,0,0,0,1.16.11.35.35,0,0,1,.43,0,.26.26,0,0,1,0,.37h0a1.45,1.45,0,0,1-2.44-1.06Zm.62-.28h1.65a1,1,0,0,0-.86-.62.81.81,0,0,0-.79.62Z" fill="#fff"/>
<rect x="274.42" y="241.43" width="48.19" height="1.29" fill="#fff"/>
<rect x="274.42" y="244.32" width="42.67" height="1.29" fill="#fff"/>
<rect x="274.42" y="247.22" width="52.46" height="1.29" fill="#fff"/>
<rect x="314.22" y="251.75" width="19.63" height="6.84" fill="#ccc"/>
<path d="M317.09,255a1.77,1.77,0,0,1,1.79-1.75h0a1.74,1.74,0,0,1,1.1.37.28.28,0,1,1-.26.5.21.21,0,0,1-.08-.06,1.25,1.25,0,0,0-.76-.26,1.13,1.13,0,0,0-.87.36,1.16,1.16,0,0,0,0,1.64l0,0a1.18,1.18,0,0,0,.87.35,1.26,1.26,0,0,0,.67-.19v-.65h-.7a.28.28,0,0,1-.27-.28.28.28,0,0,1,.27-.28h1a.28.28,0,0,1,.28.27h0v1.15h0a.17.17,0,0,1-.09.11,1.78,1.78,0,0,1-2.9-1.35Z" fill="#fff"/>
<path d="M321.21,256.42a1.26,1.26,0,0,1-.33-.85,1.28,1.28,0,0,1,.33-.85,1.17,1.17,0,0,1,.84-.37,1.1,1.1,0,0,1,.81.37,1.17,1.17,0,0,1,.33.85,1.15,1.15,0,0,1-.33.85,1.07,1.07,0,0,1-.81.37A1.17,1.17,0,0,1,321.21,256.42Zm.19-.85a.78.78,0,0,0,.19.51.67.67,0,0,0,.91,0,.78.78,0,0,0,.18-.51.72.72,0,0,0-.18-.5.73.73,0,0,0-.45-.19.66.66,0,0,0-.46.19.73.73,0,0,0-.19.5Z" fill="#fff"/>
<path d="M325,254.62a.26.26,0,0,1-.27.26h-.11v1.36a.27.27,0,0,1,.21.32.27.27,0,0,1-.21.21.55.55,0,0,1-.55-.53v-1.36h-.14a.28.28,0,0,1-.22-.31.29.29,0,0,1,.22-.22h.14v-.71a.27.27,0,0,1,.27-.26h0a.28.28,0,0,1,.27.26v.71h.11A.27.27,0,0,1,325,254.62Z" fill="#fff"/>
<path d="M327.84,253.78a.26.26,0,0,1-.25.27h0a.26.26,0,0,1-.26-.27v-.1a.26.26,0,0,1,.26-.26.25.25,0,0,1,.26.24v.12Zm0,.88v1.89a.25.25,0,0,1-.24.26h0a.26.26,0,0,1-.26-.26v-1.89a.24.24,0,0,1,.24-.26h0a.25.25,0,0,1,.26.22Z" fill="#fff"/>
<path d="M329.77,254.62a.27.27,0,0,1-.28.26h-.12v1.36a.27.27,0,0,1,.32.21.28.28,0,0,1-.22.32h-.1a.54.54,0,0,1-.54-.53v-1.36h-.13a.27.27,0,0,1-.32-.21.28.28,0,0,1,.22-.32h.24v-.71a.27.27,0,0,1,.27-.26.27.27,0,0,1,.27.25h0v.71h.12A.28.28,0,0,1,329.77,254.62Z" fill="#fff"/>
<path d="M330.64,255.61v-1.94a.27.27,0,0,1,.53,0v1.94a.27.27,0,0,1-.32.21A.25.25,0,0,1,330.64,255.61Zm.26,1.16a.26.26,0,0,1-.26-.26v-.1a.26.26,0,0,1,.21-.31.27.27,0,0,1,.32.21.17.17,0,0,1,0,.1v.1a.26.26,0,0,1-.26.26h0Z" fill="#fff"/>
<rect x="269.16" y="279.8" width="70.46" height="40.22" fill="#d1d3d4"/>
<polygon points="269.16 283.88 269.16 294.01 261.74 288.95 269.16 283.88" fill="#d1d3d4"/>
<path d="M275,288.31v-3.42a.32.32,0,0,1,.32-.32h0a.32.32,0,0,1,.32.32h0v1.39h1.51v-1.39a.32.32,0,0,1,.32-.32h0a.32.32,0,0,1,.32.32h0v3.42a.32.32,0,0,1-.32.32h0a.31.31,0,0,1-.32-.3v-1.41h-1.51v1.39a.32.32,0,0,1-.32.32h0a.31.31,0,0,1-.32-.3Z" fill="#fff"/>
<path d="M278.87,287.18a1.44,1.44,0,0,1,1.41-1.46h0a1.39,1.39,0,0,1,1.4,1.35h0v.05a.28.28,0,0,1-.3.24h-1.88a.75.75,0,0,0,.2.37.95.95,0,0,0,1.16.12.32.32,0,0,1,.43,0,.26.26,0,0,1,0,.37h0a1.47,1.47,0,0,1-2.06-.09,1.5,1.5,0,0,1-.39-1Zm.63-.28h1.65a1,1,0,0,0-.86-.62A.82.82,0,0,0,279.5,286.9Z" fill="#fff"/>
<path d="M284.28,286a.31.31,0,0,1-.31.31h0a.54.54,0,0,0-.35.11.7.7,0,0,0-.26.28,1.69,1.69,0,0,0-.25.48v1.1a.31.31,0,0,1-.37.26.3.3,0,0,1-.25-.26V286a.32.32,0,0,1,.37-.26.31.31,0,0,1,.25.26h0l.13-.12a1.26,1.26,0,0,1,.73-.22.3.3,0,0,1,.31.29Z" fill="#fff"/>
<path d="M284.55,287.18a1.43,1.43,0,0,1,1.41-1.45h0a1.39,1.39,0,0,1,1.4,1.34h0a.06.06,0,0,1,0,.06.28.28,0,0,1-.3.24h-1.85a.76.76,0,0,0,.21.37.82.82,0,0,0,.55.26.88.88,0,0,0,.61-.14.32.32,0,0,1,.43,0,.27.27,0,0,1,0,.37h0a1.46,1.46,0,0,1-2.45-1.07Zm.63-.28h1.64a1,1,0,0,0-.86-.62.82.82,0,0,0-.81.62Z" fill="#fff"/>
<path d="M292.21,286v2.2a1.37,1.37,0,0,1-1.36,1.38,1.44,1.44,0,0,1-.62-.14.32.32,0,0,1-.16-.4v0a.32.32,0,0,1,.41-.13.67.67,0,0,0,.34.09.78.78,0,0,0,.72-.53,1,1,0,0,1-.55.13,1.22,1.22,0,0,1-1.21-1.22V286a.31.31,0,1,1,.61,0h0v1.36a.6.6,0,0,0,.6.6.6.6,0,0,0,.6-.6V286a.3.3,0,0,1,.28-.32h0A.3.3,0,0,1,292.21,286Z" fill="#fff"/>
<path d="M293.54,288.21a1.42,1.42,0,0,1-.41-1,1.5,1.5,0,0,1,.41-1,1.37,1.37,0,0,1,1-.44,1.26,1.26,0,0,1,1,.44,1.4,1.4,0,0,1,.41,1,1.38,1.38,0,0,1-.41,1,1.26,1.26,0,0,1-1,.44A1.37,1.37,0,0,1,293.54,288.21Zm.23-1a1,1,0,0,0,.2.61.79.79,0,0,0,.57.21.72.72,0,0,0,.53-.21.87.87,0,0,0,.22-.61.85.85,0,0,0-.22-.61.79.79,0,0,0-.53-.22.87.87,0,0,0-.57.22.89.89,0,0,0-.2.56Z" fill="#fff"/>
<path d="M298,288.62a1.22,1.22,0,0,1-1.21-1.21V286a.32.32,0,0,1,.31-.31.31.31,0,0,1,.31.31h0v1.38a.6.6,0,0,0,1.2,0h0V286a.31.31,0,0,1,.29-.31h0a.33.33,0,0,1,.32.31v1.38A1.23,1.23,0,0,1,298,288.62Z" fill="#fff"/>
<path d="M301.9,287.19a1.52,1.52,0,0,1,2.45-1.14.3.3,0,0,1,.06.42.31.31,0,0,1-.42.08l0,0a.87.87,0,0,0-1.4.66.85.85,0,0,0,.86.82.8.8,0,0,0,.54-.18.33.33,0,0,1,.44.06h0a.3.3,0,0,1-.06.42,1.54,1.54,0,0,1-1,.31A1.47,1.47,0,0,1,301.9,287.19Z" fill="#fff"/>
<path d="M307.87,287.19v1.13a.29.29,0,0,1-.29.31h0a.31.31,0,0,1-.31-.25,1.31,1.31,0,0,1-1.73-.17,1.52,1.52,0,0,1,0-2,1.36,1.36,0,0,1,1-.43,1.3,1.3,0,0,1,.76.25.33.33,0,0,1,.31-.25.31.31,0,0,1,.3.32h0Zm-.61,0a.8.8,0,0,0-.23-.6.71.71,0,0,0-1-.06l-.06.06a.8.8,0,0,0-.23.6.86.86,0,0,0,.23.59.74.74,0,0,0,1,0l0,0A.81.81,0,0,0,307.26,287.19Z" fill="#fff"/>
<path d="M311.38,286.94v1.38a.3.3,0,0,1-.29.31h0a.31.31,0,0,1-.31-.31h0v-1.38a.59.59,0,0,0-.59-.59h0a.58.58,0,0,0-.58.58h0v1.44a.32.32,0,0,1-.31.25.31.31,0,0,1-.31-.31h0V286a.31.31,0,0,1,.31-.31.35.35,0,0,1,.28.18,1.12,1.12,0,0,1,.62-.18A1.23,1.23,0,0,1,311.38,286.94Z" fill="#fff"/>
<path d="M314.06,287.19a1.46,1.46,0,0,1,1.47-1.46,1.55,1.55,0,0,1,1,.32.31.31,0,0,1,.05.42.29.29,0,0,1-.41.08l0,0a1,1,0,0,0-.55-.18.86.86,0,0,0-.86.84.88.88,0,0,0,1.41.64.31.31,0,0,1,.43.06h0a.31.31,0,0,1-.05.42,1.54,1.54,0,0,1-1,.31A1.46,1.46,0,0,1,314.06,287.19Z" fill="#fff"/>
<path d="M319.36,286a.31.31,0,0,1-.31.31h0a.56.56,0,0,0-.35.11.88.88,0,0,0-.26.28,1.66,1.66,0,0,0-.24.48v1.1a.32.32,0,0,1-.37.26.31.31,0,0,1-.26-.26V286a.32.32,0,0,1,.37-.26.32.32,0,0,1,.26.26h0l.13-.12a1.29,1.29,0,0,1,.69-.2.3.3,0,0,1,.34.26Z" fill="#fff"/>
<path d="M319.63,287.18a1.43,1.43,0,0,1,1.42-1.45h0a1.39,1.39,0,0,1,1.4,1.34h0v.06a.29.29,0,0,1-.3.24H320.3a.75.75,0,0,0,.2.37.86.86,0,0,0,.56.26.88.88,0,0,0,.61-.14.31.31,0,0,1,.42,0,.26.26,0,0,1,0,.37h0a1.47,1.47,0,0,1-2.06-.09,1.5,1.5,0,0,1-.39-1Zm.63-.28h1.67a1,1,0,0,0-.87-.62A.81.81,0,0,0,320.26,286.9Z" fill="#fff"/>
<path d="M325.8,287.19v1.13a.31.31,0,0,1-.31.31h0a.31.31,0,0,1-.3-.25,1.33,1.33,0,0,1-1.76-.17,1.52,1.52,0,0,1,0-2,1.31,1.31,0,0,1,1.74-.18.32.32,0,0,1,.3-.25.31.31,0,0,1,.31.31h0Zm-.62,0a.92.92,0,0,0-.22-.6.73.73,0,0,0-1-.06l-.06.06a.88.88,0,0,0-.21.6.84.84,0,0,0,.21.59.75.75,0,0,0,1.06,0l0,0a.93.93,0,0,0,.25-.59Z" fill="#fff"/>
<path d="M328.28,286.05a.34.34,0,0,1-.33.32h-.15V288a.32.32,0,0,1,.32.32h0a.31.31,0,0,1-.3.32h0a.65.65,0,0,1-.65-.65h0v-1.61H327a.32.32,0,0,1-.32-.32.31.31,0,0,1,.3-.32h.18v-.84a.33.33,0,0,1,.33-.32.32.32,0,0,1,.32.32v.83H328a.33.33,0,0,1,.33.33Z" fill="#fff"/>
<path d="M328.86,287.18a1.43,1.43,0,0,1,1.41-1.45h0a1.37,1.37,0,0,1,1.39,1.34v.09a.28.28,0,0,1-.3.23h-1.85a.93.93,0,0,0,.2.38.91.91,0,0,0,.56.26.86.86,0,0,0,.6-.14.33.33,0,0,1,.44,0,.27.27,0,0,1,0,.37h0a1.54,1.54,0,0,1-1,.38,1.43,1.43,0,0,1-1.41-1.45Zm.63-.28h1.64a1,1,0,0,0-.86-.62A.8.8,0,0,0,329.49,286.9Z" fill="#fff"/>
<path d="M277.4,293v1.13a.31.31,0,0,1-.31.31h0a.33.33,0,0,1-.3-.25A1.34,1.34,0,0,1,275,294a1.51,1.51,0,0,1,0-2,1.33,1.33,0,0,1,1-.43,1.31,1.31,0,0,1,.77.25.34.34,0,0,1,.3-.25.31.31,0,0,1,.31.31h0Zm-.62,0a.83.83,0,0,0-.22-.6.72.72,0,0,0-1-.06l-.06.06a.91.91,0,0,0,0,1.19.74.74,0,0,0,1,0l0,0a.86.86,0,0,0,.23-.59Z" fill="#fff"/>
<path d="M282.72,292.75v1.38a.31.31,0,0,1-.29.31h0a.31.31,0,0,1-.31-.31h0v-1.38a.6.6,0,0,0-.61-.59h0a.58.58,0,0,0-.58.58h0v1.44a.31.31,0,0,1-.31.25.29.29,0,0,1-.3-.3h0v-2.28a.29.29,0,0,1,.29-.31h0a.32.32,0,0,1,.29.18,1.09,1.09,0,0,1,.61-.18A1.22,1.22,0,0,1,282.72,292.75Z" fill="#fff"/>
<path d="M283.65,293a1.44,1.44,0,0,1,1.42-1.45,1.38,1.38,0,0,1,1.39,1.34V293a.29.29,0,0,1-.31.23h-1.84a.82.82,0,0,0,.2.38,1,1,0,0,0,1.16.12.33.33,0,0,1,.44,0,.25.25,0,0,1,0,.36h0A1.47,1.47,0,0,1,284,294a1.45,1.45,0,0,1-.39-1Zm.64-.28h1.64a1,1,0,0,0-.86-.62A.8.8,0,0,0,284.29,292.71Z" fill="#fff"/>
<path d="M291,292l-1,2.26v0h-.29a0,0,0,0,1,0,0l-.43-1-.41,1v0h-.34v0l-1-2.26a.29.29,0,0,1,.15-.39h0a.28.28,0,0,1,.37.14s0,0,0,0l.69,1.56.4-1a.29.29,0,0,1,.28-.18.26.26,0,0,1,.28.18l.42,1,.69-1.56a.28.28,0,0,1,.35-.19h0a.29.29,0,0,1-.16.38A.27.27,0,0,1,291,292Z" fill="#fff"/>
<path d="M294.94,291.34v.09h.18a.32.32,0,0,1,0,.64h-.18v2a.32.32,0,0,1-.32.32.32.32,0,0,1-.32-.32v-2h-.15a.32.32,0,0,1,0-.64h.15v-.09a1.22,1.22,0,0,1,.11-.56.73.73,0,0,1,.42-.37,1.93,1.93,0,0,1,.34,0,.32.32,0,0,1,.32.32.32.32,0,0,1-.32.32H295A.75.75,0,0,0,294.94,291.34Z" fill="#fff"/>
<path d="M296.76,290.81a.31.31,0,0,1-.3.32h0a.32.32,0,0,1-.32-.32v-.12a.32.32,0,0,1,.32-.31.3.3,0,0,1,.31.3h0Zm0,1.06v2.26a.31.31,0,0,1-.31.31h0a.31.31,0,0,1-.32-.3h0v-2.26a.31.31,0,0,1,.3-.32h0a.29.29,0,0,1,.31.29v0Z" fill="#fff"/>
<path d="M298,290.38a.31.31,0,0,1,.32.31v3.43a.32.32,0,0,1-.32.32.32.32,0,0,1-.32-.32v-3.43a.32.32,0,0,1,.32-.31Z" fill="#fff"/>
<path d="M299.1,293a1.44,1.44,0,0,1,1.42-1.45h0a1.39,1.39,0,0,1,1.4,1.34h0v.06a.28.28,0,0,1-.3.23h-1.86a.68.68,0,0,0,.21.38.82.82,0,0,0,.55.26.88.88,0,0,0,.61-.14.32.32,0,0,1,.43,0,.27.27,0,0,1,0,.37,1.48,1.48,0,0,1-1,.39A1.45,1.45,0,0,1,299.1,293Zm.63-.28h1.65a1,1,0,0,0-.86-.62A.81.81,0,0,0,299.73,292.71Z" fill="#fff"/>
<path d="M305.54,291.34v.09h.17a.32.32,0,1,1,0,.64h-.17v2a.32.32,0,0,1-.64,0v-2h-.15a.32.32,0,0,1,0-.64h.15v-.09a1.22,1.22,0,0,1,.11-.56.75.75,0,0,1,.41-.37,2,2,0,0,1,.35,0,.32.32,0,0,1,.32.32.32.32,0,0,1-.32.32h-.14A.52.52,0,0,0,305.54,291.34Z" fill="#fff"/>
<path d="M306.89,294a1.35,1.35,0,0,1-.4-1,1.49,1.49,0,0,1,.4-1,1.33,1.33,0,0,1,1-.44,1.27,1.27,0,0,1,1,.44,1.44,1.44,0,0,1,.41,1,1.38,1.38,0,0,1-.41,1,1.24,1.24,0,0,1-1,.45A1.31,1.31,0,0,1,306.89,294Zm.23-1a1,1,0,0,0,.2.61.77.77,0,0,0,.56.21.74.74,0,0,0,.53-.21.89.89,0,0,0,.24-.61.85.85,0,0,0-.24-.61.8.8,0,0,0-.53-.23.9.9,0,0,0-.56.23.93.93,0,0,0-.2.56Z" fill="#fff"/>
<path d="M311.92,291.85a.31.31,0,0,1-.31.31h0a.53.53,0,0,0-.35.1.77.77,0,0,0-.26.28,1.49,1.49,0,0,0-.24.49v1.1a.32.32,0,0,1-.37.26.31.31,0,0,1-.26-.26v-2.28a.31.31,0,0,1,.37-.26.32.32,0,0,1,.26.26h0a.46.46,0,0,1,.12-.12,1.21,1.21,0,0,1,.73-.22.3.3,0,0,1,.31.29Z" fill="#fff"/>
<path d="M314.18,293a1.44,1.44,0,0,1,1.42-1.45h0a1.38,1.38,0,0,1,1.48,1.29v.05h0v.06a.29.29,0,0,1-.3.23h-1.85a.79.79,0,0,0,.75.64.9.9,0,0,0,.6-.14.33.33,0,0,1,.44,0,.27.27,0,0,1,0,.37h0a1.46,1.46,0,0,1-2.07-.09,1.44,1.44,0,0,1-.38-1Zm.63-.28h1.65a1,1,0,0,0-.86-.62.82.82,0,0,0-.75.62Z" fill="#fff"/>
<path d="M320.59,294.13a.32.32,0,0,1-.32.31.3.3,0,0,1-.3-.25,1.4,1.4,0,0,1-.79.25,1.45,1.45,0,0,1,0-2.9,1.35,1.35,0,0,1,.77.24v-1.09a.32.32,0,0,1,.64,0V293h0Zm-1.41-1.94a.69.69,0,0,0-.54.25.82.82,0,0,0,0,1.16.73.73,0,0,0,1,.06l.06-.06a.85.85,0,0,0,0-1.16.68.68,0,0,0-.54-.27Z" fill="#fff"/>
<path d="M322.42,290.81a.31.31,0,0,1-.3.32h0a.31.31,0,0,1-.31-.31h0v-.12a.3.3,0,0,1,.3-.31h0a.3.3,0,0,1,.31.3h0Zm0,1.06v2.26a.29.29,0,0,1-.29.31h0a.31.31,0,0,1-.31-.31h0v-2.26a.3.3,0,0,1,.28-.32h0a.29.29,0,0,1,.31.29v0Z" fill="#fff"/>
<path d="M324.73,291.86a.33.33,0,0,1-.33.32h-.14v1.61a.32.32,0,0,1,.32.32h0a.32.32,0,0,1-.3.32h0a.65.65,0,0,1-.65-.65h0v-1.61h-.16a.32.32,0,0,1-.32-.32.32.32,0,0,1,.32-.32h.16v-.85a.33.33,0,0,1,.33-.31.31.31,0,0,1,.32.31v.84h.14a.32.32,0,0,1,.33.33Z" fill="#fff"/>
<path d="M326.38,290.81a.32.32,0,0,1-.3.32h0a.32.32,0,0,1-.32-.32v-.12a.31.31,0,0,1,.32-.31.3.3,0,0,1,.31.3h0Zm0,1.06v2.26a.31.31,0,0,1-.31.31h0a.31.31,0,0,1-.32-.3h0v-2.26a.3.3,0,0,1,.3-.32h0a.3.3,0,0,1,.31.29v0Z" fill="#fff"/>
<path d="M329.8,292.75v1.38a.31.31,0,0,1-.29.31h0a.31.31,0,0,1-.31-.31h0v-1.38a.59.59,0,0,0-.59-.59h0a.58.58,0,0,0-.59.58h0v1.38a.06.06,0,0,1,0,.06.3.3,0,0,1-.31.25.3.3,0,0,1-.3-.31h0v-2.28a.31.31,0,0,1,.29-.33h.05a.27.27,0,0,1,.28.18,1.15,1.15,0,0,1,.62-.18A1.21,1.21,0,0,1,329.8,292.75Z" fill="#fff"/>
<path d="M333.54,293v1.07a1.4,1.4,0,0,1-1.39,1.4h0a1.31,1.31,0,0,1-.61-.15.3.3,0,0,1-.15-.4v0a.32.32,0,0,1,.42-.14.63.63,0,0,0,.33.09.79.79,0,0,0,.76-.63,1.36,1.36,0,0,1-1.75-.21,1.48,1.48,0,0,1-.41-1,1.53,1.53,0,0,1,.41-1,1.41,1.41,0,0,1,1-.42,1.36,1.36,0,0,1,.78.24.31.31,0,0,1,.61.07h0V293Zm-.62,0a.9.9,0,0,0-.22-.59.67.67,0,0,0-.55-.25.71.71,0,0,0-.54.25.9.9,0,0,0,0,1.19.73.73,0,0,0,.54.24.76.76,0,0,0,.55-.24.91.91,0,0,0,.21-.61Z" fill="#fff"/>
<rect x="274.42" y="298.61" width="48.19" height="1.29" fill="#fff"/>
<rect x="274.42" y="301.51" width="42.67" height="1.29" fill="#fff"/>
<rect x="274.42" y="304.4" width="52.46" height="1.29" fill="#fff"/>
<rect x="314.22" y="308.93" width="19.63" height="6.84" fill="#ccc"/>
<path d="M319.46,313.69a.26.26,0,0,1-.26.26.25.25,0,0,1-.26-.26h0v-2.81h0a.24.24,0,0,1,.1-.22.28.28,0,0,1,.37.06l1.56,2.17v-2a.27.27,0,0,1,.32-.21.28.28,0,0,1,.21.21v2.82a.26.26,0,0,1-.26.26h0a.22.22,0,0,1-.19-.09h0l-1.55-2.15Z" fill="#fff"/>
<path d="M322.44,312.74a1.19,1.19,0,0,1,1.17-1.21h0a1.15,1.15,0,0,1,1.16,1.13v.06a.24.24,0,0,1-.25.2H323a.59.59,0,0,0,.17.32.77.77,0,0,0,.46.22.8.8,0,0,0,.5-.13.27.27,0,0,1,.36,0,.2.2,0,0,1,0,.29l0,0a1.22,1.22,0,0,1-1.72-.07,1.26,1.26,0,0,1-.32-.82Zm.52-.23h1.38a.8.8,0,0,0-.72-.51A.68.68,0,0,0,323,312.51Z" fill="#fff"/>
<path d="M327.15,312l-.57.79.57.81a.23.23,0,0,1,0,.34.19.19,0,0,1-.15,0,.28.28,0,0,1-.21-.1l-.49-.66-.48.66a.26.26,0,0,1-.2.1.2.2,0,0,1-.15,0,.24.24,0,0,1-.06-.34l.58-.81-.58-.79a.24.24,0,0,1,.06-.34h0a.25.25,0,0,1,.35.05l.48.65.49-.65a.27.27,0,0,1,.36-.05A.25.25,0,0,1,327.15,312Z" fill="#fff"/>
<path d="M329.25,311.85a.26.26,0,0,1-.27.26h-.11v1.36a.27.27,0,0,1,.21.32.25.25,0,0,1-.21.21.55.55,0,0,1-.55-.53v-1.36h-.13a.27.27,0,0,1-.32-.21.27.27,0,0,1,.22-.32h.23v-.71a.28.28,0,0,1,.28-.26.27.27,0,0,1,.27.26h0v.71H329A.27.27,0,0,1,329.25,311.85Z" fill="#fff"/>
<polyline points="596.51 231.74 369.77 231.74 369.77 369.7 595.47 369.7" fill="none" stroke="#ccc" stroke-linecap="round" stroke-linejoin="round" stroke-width="2"/>
<line x1="370.81" y1="271.06" x2="597.52" y2="271.06" fill="none" stroke="#ccc" stroke-linecap="round" stroke-linejoin="round" stroke-width="2"/>
<line x1="370.81" y1="310.31" x2="597.52" y2="310.31" fill="none" stroke="#ccc" stroke-linecap="round" stroke-linejoin="round" stroke-width="2"/>
<line x1="370.81" y1="349.54" x2="597.52" y2="349.54" fill="none" stroke="#ccc" stroke-linecap="round" stroke-linejoin="round" stroke-width="2"/>
<line x1="363.57" y1="252.09" x2="354.25" y2="252.09" fill="none" stroke="#ccc" stroke-linecap="round" stroke-linejoin="round" stroke-width="0.5"/>
<line x1="363.57" y1="271.55" x2="354.25" y2="271.55" fill="none" stroke="#ccc" stroke-linecap="round" stroke-linejoin="round" stroke-width="0.5"/>
<line x1="363.57" y1="291.01" x2="354.25" y2="291.01" fill="none" stroke="#ccc" stroke-linecap="round" stroke-linejoin="round" stroke-width="0.5"/>
<line x1="363.57" y1="310.44" x2="354.25" y2="310.44" fill="none" stroke="#ccc" stroke-linecap="round" stroke-linejoin="round" stroke-width="0.5"/>
<line x1="363.57" y1="329.9" x2="354.25" y2="329.9" fill="none" stroke="#ccc" stroke-linecap="round" stroke-linejoin="round" stroke-width="0.5"/>
<line x1="363.57" y1="349.36" x2="354.25" y2="349.36" fill="none" stroke="#ccc" stroke-linecap="round" stroke-linejoin="round" stroke-width="0.5"/>
<line x1="363.57" y1="368.82" x2="354.25" y2="368.82" fill="none" stroke="#ccc" stroke-linecap="round" stroke-linejoin="round" stroke-width="0.5"/>
<rect x="378.02" y="286.97" width="10.42" height="82.18" fill="#d1d3d4"/>
<rect x="396.53" y="247.63" width="10.42" height="121.53" fill="#d1d3d4"/>
<rect x="415.05" y="286.97" width="10.42" height="82.18" fill="#ccc"/>
<rect x="456.75" y="260.37" width="10.42" height="108.82" fill="#d1d3d4"/>
<rect x="475.26" y="276.56" width="10.42" height="92.6" fill="#d1d3d4"/>
<rect x="493.77" y="322.87" width="10.42" height="46.31" fill="#ccc"/>
<rect x="535.44" y="286.97" width="10.42" height="82.18" fill="#d1d3d4"/>
<rect x="553.96" y="247.63" width="10.42" height="121.53" fill="#d1d3d4"/>
<rect x="572.5" y="286.97" width="10.42" height="82.18" fill="#ccc"/>
<path d="M101.93,520c0,5.91,3.44,11.64,8,15.43a47.1,47.1,0,0,1,5.18,4.26c1.5,1.65,2.5,4,1.72,6.14a5.78,5.78,0,0,1-4.74,3.37c-7.68,1-14.76-5.21-17.59-11.88a33.75,33.75,0,0,1-3-15.07c.38-5.42,2.35-10.56,4.28-15.58" fill="#263238"/>
<path d="M154.94,222.28l-3.32,17.89a34.62,34.62,0,0,1-23-.15l-6.77-22.3s5.87-1.17,6.58-19.31l-6-12.56s-3.06,5.43-5.66-.23-5.42-14.85-.71-15.07,8.49.69,16.5-3.74,16.26-14.61,16.26-14.61l11.07,9.89s3.31,27.58-10.37,38.18c1.95.37.48,17.78-.81,18.47C146.7,219.79,154.94,222.28,154.94,222.28Z" fill="#f9b499"/>
<path d="M140.72,144.58S152.58,140,160,155.64s5.27,24.28,17,37.94,7.59,28.19,2.17,36l-6.12-1s1.27-2.14-4-3-12.62-2.16-12.62-2.16l-2.25-.19-5.71-3.65a85.25,85.25,0,0,1,.94-20.36s5.57-5.6,7.09-12.75,2-24.07,2-24.07-4.84-.61-8.72-8C145.63,151,141.89,150.19,140.72,144.58Z" fill="#2f2e41" data-secondary="true"/>
<path d="M120.8,171.71c12.65-3,24.77-10.1,29.45-20l-9.53-7.11s-19.94-9.85-27.83,12.18-2.76,61.88-2.76,61.88l7.79-1.41a6.78,6.78,0,0,1,4,.49h0a10.19,10.19,0,0,0,6.4-8.39,89.9,89.9,0,0,1,1.85-10.82A28.94,28.94,0,0,1,123,184.05s-6,5.47-8.09-4.14C113.55,173.58,115.86,168.3,120.8,171.71Z" fill="#2f2e41" data-secondary="true"/>
<path d="M162.23,185.46a29,29,0,0,0,1.37,3.32c1.73,3.53,4.24,6.62,6.12,10.09a32.29,32.29,0,0,1,2.18,25.37" fill="none" stroke="#fff" stroke-linecap="round" stroke-linejoin="round" stroke-width="0.47"/>
<path d="M157.22,190.83a57.88,57.88,0,0,1,2.13,30.78" fill="none" stroke="#fff" stroke-linecap="round" stroke-linejoin="round" stroke-width="0.47"/>
<path d="M140.62,149.89S132,164,119.83,169" fill="none" stroke="#fff" stroke-linecap="round" stroke-linejoin="round" stroke-width="0.47"/>
<path d="M138.22,147.85s-15.81-.86-21.2,20.8" fill="none" stroke="#fff" stroke-linecap="round" stroke-linejoin="round" stroke-width="0.47"/>
<path d="M149.37,528.66s-9.38,17.08-9.68,21.69,5.68,7.23,5.68,7.23l8.45-5.14s6.24-8.39,5.76-22.08S149.37,528.66,149.37,528.66Z" fill="#fff"/>
<path d="M149.12,529.34c-3,6.23-6.45,12.77-9.27,19.42a15.12,15.12,0,0,0-1.47,5.4,5.64,5.64,0,0,0,2.19,4.91c2,1.33,4.78.68,6.87-.53a19.63,19.63,0,0,0,6.33-6.1c5.4-7.9,6.34-18,5.75-27.54" fill="#f9b499"/>
<path d="M155.33,549.88c-.71,1.5-4.21,3.29-5.73,3.91a8.11,8.11,0,0,1-6.48-.07c-3.13-1.67-1.6-5.77-1.64-8.5,0,0-6.85,11-.58,14.25C146.45,562.35,154.09,553.32,155.33,549.88Z" fill="#ef3939" data-primary="true"/>
<path d="M102,518.5s-.78,8.32,7.38,16.21,6.62,5.23,4,8.73-12.92.61-12.92.61l-5.38-5.24s-7-12.6-2.41-22.12S102,518.5,102,518.5Z" fill="#f9b499"/>
<path d="M112.46,537.66c0,.12,0-.12,0,0a4.63,4.63,0,0,1-2.39,3.74,8.38,8.38,0,0,1-4.81.91,16.19,16.19,0,0,1-11.2-5.58s6.25,14.58,18.25,12S112.46,537.66,112.46,537.66Z" fill="#ef3939" data-primary="true"/>
<path d="M186.57,353.09l.19.8c1.25,5.1,7.27,33.66-2.26,59.77-10.51,28.75-16,27.64-12.16,41.46s5.84,40.28-12.39,76.76l-11.37-.49s10.49-132.65,8.83-167.47H153s-9.71,106.59-51.11,156.89l-9.75-2.63s.1-28.24,6.23-47,17.69-22.1,18.24-41.45-11.6-48.08-7.73-77.37l13.54,11.09,8.89-18.36s17.93,12.88,41.14-7.07Z" fill="#2f2e41" data-secondary="true"/>
<path d="M186.57,353.09l.19.8c1.25,5.1,7.27,33.66-2.26,59.77-10.51,28.75-16,27.64-12.16,41.46s5.84,40.28-12.39,76.76l-11.37-.49s10.49-132.65,8.83-167.47H153s-9.71,106.59-51.11,156.89l-9.75-2.63s.1-28.24,6.23-47,17.69-22.1,18.24-41.45-11.6-48.08-7.73-77.37l13.54,11.09,8.89-18.36s17.93,12.88,41.14-7.07Z" opacity="0.2"/>
<path d="M192.61,254.51l-7.12-24.06-12.24-2s1.53-2.86-1.87-3.05-16.68-2.68-16.68-2.68L143,287.24l-21.1-69.52s-1.25-.89-4.79-.61-12,1.53-12.47,2.34-2.37,1.17-2.37,1.17-12.76-.42-13.71,5.65C86.81,233.61,91,285.43,91,285.43s-12.8,12.26-15.76,17.92l9.22,13.3,17-9L113,300.24l1.81,3-22,35.89,29.53,24.23c2.76-4.5,5.5-9.4,8.13-14.71a185.3,185.3,0,0,0,14.07-39.09l42.1,43.53,7.48-29.81L167.24,296l5-7.48s9.76,17.84,14.79,18.22,15.26-13.22,16.21-15a1.69,1.69,0,0,0-.56-2.33,1.8,1.8,0,0,0-.34-.17s8.09-11.53,5.58-14.43c-1.66-1.76-11.89,4.24-16.32,3.2-3.13-.91-4.55-3.49-6.86-8.26,1.14-1.22,1.63-3.41,2.47-4.85Z" fill="#ef3939" data-primary="true"/>
<path d="M190,276.81s-5.21-6.23-5.78-8c0,0-3-1.24-3.74,1.76a23.13,23.13,0,0,1-2.91,8c-1.65,2.58.81,5.73,3.39,8.66s3.95,6.88,6.66,7.13S201,289.8,201,289.8a6.25,6.25,0,0,0,4-5.15c.58-4.09,4.27-7.36,3-10s-8.86,3.26-12.14,3A4.79,4.79,0,0,1,190,276.81Z" fill="#fff" opacity="0.5" style="isolation:isolate"/>
<path d="M142.51,290s-34.23-36.6-35.48-40,3.66-7.28,3.66-7.28,4.22-2.92,3-6.6-8.37-8.89-9-11.67.65-2.91.65-2.91,15.58-3.49,16.63-2.81,9,30.6,9,30.6Z" fill="#fff" opacity="0.5" style="isolation:isolate"/>
<path d="M173.54,227.13c.46,2.3-7,12.78-7,12.78s6.73,11.22,7.48,13.27-27,36.06-27,36.06-2.08,2.31-3.74,2.31-.15-6-.15-6,11.09-60.27,11.56-62.79c0,0,12.47,2.19,15.83,2.61,1.39-.11,2.55.33,2.9,1.14A1.62,1.62,0,0,1,173.54,227.13Z" fill="#fff" opacity="0.5" style="isolation:isolate"/>
<path d="M128.66,240c8.72,3.47,22.85,0,22.85,0l-8.83,48.62Z" fill="#ccc"/>
<ellipse cx="139.06" cy="298.62" rx="2.18" ry="3.52" fill="#2f2e41" data-secondary="true"/>
<path d="M174.07,339.74s-20.74,16-43.41,8.36l13.81-38.54Z" fill="#2f2e41" data-secondary="true"/>
<path d="M174.07,339.74s-20.74,16-43.41,8.36l13.81-38.54Z" opacity="0.2"/>
<polygon points="33.3 307.2 32.77 311.02 35.96 316.06 37.74 312.87 33.3 307.2" fill="#92e3a9"/>
<polygon points="88.85 326.71 60.6 349.6 47.85 329.18 45.34 331.1 59.95 354.69 86.37 332.63 88.85 326.71" fill="#92e3a9"/>
<polygon points="33.3 307.2 32.77 311.02 35.96 316.06 37.74 312.87 33.3 307.2" fill="#2f2e41" data-secondary="true"/>
<polygon points="88.85 326.71 60.6 349.6 47.85 329.18 45.34 331.1 59.95 354.69 86.37 332.63 88.85 326.71" fill="#2f2e41" data-secondary="true"/>
<polyline points="47.85 329.18 60.6 349.6 89.95 325.35 62.12 284.79 33.29 306.22 37.74 313.19" fill="#fff"/>
<polyline points="36.47 316.35 33.14 310.92 33.29 306.22" fill="none" stroke="#263238" stroke-linecap="round" stroke-linejoin="round" stroke-width="0.94"/>
<path d="M38.5,308.1a.49.49,0,0,0,.28-.09L62,291a.47.47,0,0,0-.55-.75l-23.24,17a.47.47,0,0,0-.1.65A.46.46,0,0,0,38.5,308.1Z" fill="#2f2e41" data-secondary="true"/>
<path d="M40.18,310.46a.47.47,0,0,0,.28-.09l23.24-17a.47.47,0,1,0-.56-.76l-23.23,17a.45.45,0,0,0-.1.65A.47.47,0,0,0,40.18,310.46Z" fill="#2f2e41" data-secondary="true"/>
<path d="M47.09,309.76a.49.49,0,0,0,.28-.09l18.51-13.6a.47.47,0,0,0-.55-.75l-18.52,13.6a.47.47,0,0,0,.28.84Z" fill="#2f2e41" data-secondary="true"/>
<path d="M42.25,317a.49.49,0,0,0,.28-.09l25-18.29a.45.45,0,0,0,.1-.65.46.46,0,0,0-.65-.1L42,316.12a.48.48,0,0,0-.11.66A.5.5,0,0,0,42.25,317Z" fill="#2f2e41" data-secondary="true"/>
<path d="M52.64,314.28a.41.41,0,0,0,.27-.1l16.84-12.39a.45.45,0,0,0,.1-.65.46.46,0,0,0-.65-.1L52.36,313.43a.46.46,0,0,0-.1.65A.46.46,0,0,0,52.64,314.28Z" fill="#2f2e41" data-secondary="true"/>
<path d="M54,317.89a.49.49,0,0,0,.28-.09l17.48-13a.47.47,0,0,0-.56-.75l-17.48,13a.45.45,0,0,0-.09.65A.44.44,0,0,0,54,317.89Z" fill="#2f2e41" data-secondary="true"/>
<path d="M54,321.94a.49.49,0,0,0,.28-.09l19.16-14a.47.47,0,0,0,.1-.65.46.46,0,0,0-.65-.1l-19.17,14a.47.47,0,0,0-.1.65A.46.46,0,0,0,54,321.94Z" fill="#2f2e41" data-secondary="true"/>
<path d="M51.64,328a.44.44,0,0,0,.27-.09l23.23-17a.46.46,0,0,0,.1-.65.45.45,0,0,0-.65-.1l-23.23,17a.47.47,0,0,0,.28.85Z" fill="#2f2e41" data-secondary="true"/>
<path d="M53.32,331a.43.43,0,0,0,.28-.09l23.22-17a.45.45,0,0,0,.1-.65.46.46,0,0,0-.65-.1l-23.22,17a.46.46,0,0,0-.1.65A.44.44,0,0,0,53.32,331Z" fill="#2f2e41" data-secondary="true"/>
<path d="M55,334a.46.46,0,0,0,.27-.09l23.23-17a.47.47,0,0,0,.1-.65.47.47,0,0,0-.66-.1l-23.22,17a.46.46,0,0,0-.1.65A.45.45,0,0,0,55,334Z" fill="#2f2e41" data-secondary="true"/>
<path d="M204,275.11s-9.48,4.39-12.77,3.46-6.45-8.79-6.45-8.79l17.55-34.25s-5.25-10.32-4.6-14,6.6-9.45,6.6-9.45l1.12,1.11s8.86-15.68,10.57-14.82-3.5,11.11-3.5,11.11a3.07,3.07,0,0,1,2.49,2.9s8.63,7.84,8.44,11.57S214,239.22,214,239.22Z" fill="#f9b499"/>
<path d="M37.24,320.15s-2-4.14.74-6.63S48,303,49.31,303.91s-8.84,14.21-8.84,14.21" fill="#f9b499"/>
<path d="M40.38,318.48c4.88-3.5,12.61-8.21,13.54-7.27,1.35,1.35-9.41,9.79-9.41,9.79s9.61-7.68,11-6.14c.82.94-4.06,5-7.91,8.31" fill="#f9b499"/>
<path d="M48.21,322.63c3.23-3,6.58-5.74,7.24-5.08,1.34,1.34-8.82,13.71-11.22,14.15-2.66.46-2.74-2.93-2.74-2.93h0a4.39,4.39,0,0,1-3-3.67v-.43a3.75,3.75,0,0,1-1.05-5.19,4.06,4.06,0,0,1,.36-.46l1.7-1.15s1.68,1.6,2.66,1" fill="#f9b499"/>
<path d="M648.7,206.51s-24.41,3.19-27.77,14.69c0,0-13.27,55-13.27,62.81,0,0,12.74-3.72,18.58,6.37l1.94,2.48-2.83,44.4s37.33,7.79,74.67-1.41c0,0-17.25-58-13.68-89.14,0,0,7.13,2.06,8.44,7.69,0,0,22.15,5.07,27,7.32,0,0,3-16.51,4.88-21.77,0,0-14.08-24.58-41.29-30.78C685.4,209.17,661.35,205.73,648.7,206.51Z" fill="#ef3939" data-primary="true"/>
<path d="M648.7,206.51s-24.41,3.19-27.77,14.69c0,0-13.27,55-13.27,62.81,0,0,12.74-3.72,18.58,6.37l1.94,2.48-2.83,44.4s37.33,7.79,74.67-1.41c0,0-17.25-58-13.68-89.14,0,0,7.13,2.06,8.44,7.69,0,0,22.15,5.07,27,7.32,0,0,3-16.51,4.88-21.77,0,0-14.08-24.58-41.29-30.78C685.4,209.17,661.35,205.73,648.7,206.51Z" fill="#fff" opacity="0.2"/>
<path d="M624.78,229.44s6.1-15,9.9-19.4c0,0,10.54-3.41,14-3.53l-4.59,9.38s-13.88,19.56-14.63,36.26l-1.3,40.71a46.26,46.26,0,0,1-3.4-4.56S614.46,255.53,624.78,229.44Z" fill="#2f2e41" data-secondary="true"/>
<path d="M685.4,209.17l-14.93-1.75S657.21,243,667.17,270c0,0,13.05,28.55,25.49,36.8,0,0-3.34-16.59-4-20.77,0,0-16.22-21.85-8.15-55.44Z" fill="#2f2e41" data-secondary="true"/>
<path d="M625.35,337.26s-.57,48.14,1.69,65.4V531h22.89s3.75-134.37,10.89-159.9h6.35s12,141.51,11.66,159.9h18.39s4.51-125.74,2.26-136.63a150.58,150.58,0,0,0,.54-58.55S663.46,344.31,625.35,337.26Z" fill="#2f2e41" data-secondary="true"/>
<path d="M625.35,337.26s-.57,48.14,1.69,65.4V531h22.89s3.75-134.37,10.89-159.9h6.35s12,141.51,11.66,159.9h18.39s4.51-125.74,2.26-136.63a150.58,150.58,0,0,0,.54-58.55S663.46,344.31,625.35,337.26Z" opacity="0.2"/>
<path d="M607.66,284s-3.95,36.41-1.88,52.21c0,0-9.1,19.73,8.69,19.32A14.2,14.2,0,0,0,626.35,348a1.31,1.31,0,0,0-.47-1.7c-2.82-1.75-10.65-7.29-10.72-14.92,0,0,12.13-27.49,11.71-40.11C626.87,291.24,622.57,280.3,607.66,284Z" fill="#f9b499"/>
<path d="M676.69,249.69s14.52,2.65,20.39,5.25c0,0,21.22,4.67,24.73,6.78,0,0,7.41,16.44,2.42,22.95,0,0-4.56,4.52-15-1.43,0,0-26.26-13.33-35.16-24.83,0,0-8.25,2.6-11.51,1.3a3.88,3.88,0,0,1,0-3.91,3.09,3.09,0,0,1-1.81-3.6,3.24,3.24,0,0,1-.12-3.1s-1.79-1.27-.34-4.22c0,0-2.42,2.11-3,0a7.63,7.63,0,0,1,1.55-4.64,6.85,6.85,0,0,1,5.52-2.68h8.09S677.7,237.18,676.69,249.69Z" fill="#f9b499"/>
<path d="M726.69,285.18l-10-1.94s8.48-39.77,10-43.29c0,0,.94-11.82,8-11.68h11s1.43,11.14,9.38,13.67a8.11,8.11,0,0,0,4.45.07c3.49-.9,10.78-3.88,19.2-13.74l17.08,1.36s4.88-.37,6.38,6.38c0,0,7.13,40.91,10.51,46.54a92.4,92.4,0,0,1-22.71,6.2l7.7,19.7H737.57c-.82-3.7-1.6-7.62-2.28-11.74s-1.24-8.25-1.66-12.09Z" fill="#ef3939" data-primary="true"/>
<path d="M741.89,229.63s2.44,16.14,15.58,15.2c0,0,12.95-.56,22.14-13.32v-3.17l-.94-.07s-9.38,12.25-21.39,14.12c0,0-8.45.84-11.64-14.12h-3.75Z" fill="#fff"/>
<path d="M718.44,283.58S714.3,321,715.8,336.22c0,0-7.4,21,12.44,17.27V343.36l.79-3s-2.67-2.24-3.07-8.24l7.21-16.78s-6.67-26.21-6.48-30.14Z" fill="#f9b499"/>
<path d="M832.16,318.76s-4.71,2.27-14.27,2l3.31,12.9s7,11.83,1,19.1c0,0,7.85-1.87,10.86-5.63Z" fill="#bcbec0"/>
<g opacity="0.2">
<path d="M825,320.45l-2.08-30.94c-.55-15.18-8.91-16.84-9-16.85l.09-.48c.08,0,8.83,1.72,9.39,17.31l2.08,30.93Z"/>
</g>
<path d="M751.7,213.19v11.42l-6.06,3.66s1.88,13,11.64,14.12c0,0,10.23-.75,21.39-14.12,0,0-5.16-1.69-6.28-4.22l-1.13-11.4Z" fill="#f9b499"/>
<path d="M605.27,558.24s-1.13-4.69,4.12-8.26l18-10.88s9.38,8.26,16.14,5.82c0,0,3-1.13,3-3.76,0,0,1.88,12.58-.94,17.08Z" fill="#ef3939" data-primary="true"/>
<path d="M680.33,539.1c-3-.75-5.25,17.08-5.25,17.08a18.71,18.71,0,0,0,7.51,2.06h26.46s-4.51-11.07-12-19.14c0,0-.09,2-7,3.43C690.05,542.53,683.34,544.16,680.33,539.1Z" fill="#ef3939" data-primary="true"/>
<path d="M736,532.53s-1.13,5.63-4.7,8.07c0,0,9.39,8.07,16.14,5.82a6.55,6.55,0,0,0,3-4.69v-9.2Z" fill="#f9b499"/>
<path d="M709.15,559.74s-1.13-4.69,4.13-8.26l18-10.88s6.44,5.56,12.55,6a6.24,6.24,0,0,0,5.95-2.7,4.34,4.34,0,0,0,.65-2.17s1.87,13.51-.94,18Z" fill="#ef3939" data-primary="true"/>
<path d="M784.22,530.74v8.55s3,6,11.82,2.81c0,0,5.07-1.13,4.88-2.81,0,0-4.13-3.67-2.63-8.55Z" fill="#f9b499"/>
<path d="M784.22,539.29c-3-.76-5.26,17.07-5.26,17.07a18.68,18.68,0,0,0,7.51,2.07h26.46s-4.5-11.07-12-19.14c0,0-.49,1.57-7,3.43C793.93,542.72,787.22,544.35,784.22,539.29Z" fill="#ef3939" data-primary="true"/>
<path d="M648.7,199.08v7.43l-4.59,9.38s7.25,17,22.11,6.37c0,0,2.83-10.44,4.25-14l-.8-20.52Z" fill="#f9b499"/>
<path d="M669.94,194.7s-3.59,12.76-21.24,8.24v-3.86l21-11.32Z" fill="#f7aa92"/>
<circle cx="639.9" cy="182.73" r="5.03" fill="#f9b499"/>
<ellipse cx="655.09" cy="176.25" rx="16.47" ry="24.77" fill="#f9b499"/>
<circle cx="672.72" cy="184.04" r="5.03" fill="#f9b499"/>
<path d="M635.61,170.24s9.91,5.84,18.23-3c0,0,9.41-12.67,14.61-5.45,0,0,.59,14.49,3,17.4a3.5,3.5,0,0,1,2.57,0s12.41-19.1,2.79-25.92a4.31,4.31,0,0,1-1.78-2.62c-.73-3.62-3.64-11.6-15.16-11.19,0,0-10.77-1.72-14.51,7.83a6.69,6.69,0,0,1-4.64,4.07,8.15,8.15,0,0,1-2.18.23,5.8,5.8,0,0,0-3.84,1.09c-1.8,1.38-3.33,4.32-.66,10.49C634,163.17,636.5,166.71,635.61,170.24Z" fill="#2f2e41" data-secondary="true"/>
<path d="M635.61,170.24s9.91,5.84,18.23-3c0,0,9.41-12.67,14.61-5.45,0,0,.59,14.49,3,17.4a3.5,3.5,0,0,1,2.57,0s12.41-19.1,2.79-25.92a4.31,4.31,0,0,1-1.78-2.62c-.73-3.62-3.64-11.6-15.16-11.19,0,0-10.77-1.72-14.51,7.83a6.69,6.69,0,0,1-4.64,4.07,8.15,8.15,0,0,1-2.18.23,5.8,5.8,0,0,0-3.84,1.09c-1.8,1.38-3.33,4.32-.66,10.49C634,163.17,636.5,166.71,635.61,170.24Z" fill="#2f2e41" opacity="0.2" data-secondary="true"/>
<path d="M734.66,320.74s-11.21-38.84-8.7-49.82l8.7-42.65h7.23l-8.77,47.86s-.66,5.53,4.45,32.32Z" fill="#d1d3d4"/>
<path d="M729.42,338.74l8.15-30.29h60.06s11.82,51.05,4.69,89.71c0,0-.38,102.47-2.63,132.87H781.3s-8.63-138.5-12-155l-6.76-.37s-10.88,116-9.38,156.89h-22.9V418.8s-2.16-52.51-2-71.51A33.83,33.83,0,0,1,729.42,338.74Z" fill="#2f2e41" data-secondary="true"/>
<path d="M735.36,236.75a7.47,7.47,0,1,0,7.47,7.46A7.46,7.46,0,0,0,735.36,236.75Zm0,11.78a4.32,4.32,0,1,1,4.31-4.32A4.31,4.31,0,0,1,735.36,248.53Z" fill="#bcbec0"/>
<path d="M779.61,282.2V228.34l9.38.75L787.39,280a13.47,13.47,0,0,0,.92,5.33l27.52,70.25a42.47,42.47,0,0,1-4.9,1.72,36.62,36.62,0,0,1-3.92.9c-4.33-13.8-9.44-24.21-12.28-31.7-6.36-16.82-13.18-35.54-15-43.21A4.81,4.81,0,0,1,779.61,282.2Z" fill="#d1d3d4"/>
<path d="M810.08,283.58v0a54.3,54.3,0,0,0,1.72,13.55l9.4,36.48s9.06,11.19,0,20.24a6.3,6.3,0,0,1-6.49,1.21.84.84,0,0,1-.25-1.37c.25-.29.32-.85-.07-1.85,0,0-6-9.29-2.78-16l-11.46-20.32-10.22-26.78A80.62,80.62,0,0,0,810.08,283.58Z" fill="#f9b499"/>
<path d="M783.9,238.9a7.47,7.47,0,1,0,7.47,7.47A7.48,7.48,0,0,0,783.9,238.9Zm0,11.78a4.31,4.31,0,1,1,4.31-4.31A4.31,4.31,0,0,1,783.9,250.68Z" fill="#bcbec0"/>
<path d="M751.7,221.75V216.8l16.71,2.06S759.75,224.47,751.7,221.75Z" fill="#f4a48e"/>
<ellipse cx="761.55" cy="197.98" rx="17.73" ry="22.63" fill="#f9b499"/>
<ellipse cx="779.63" cy="203.28" rx="4.14" ry="2.89" transform="translate(242.61 803.91) rotate(-62.81)" fill="#f9b499"/>
<ellipse cx="743.81" cy="198.55" rx="2.89" ry="4.14" transform="translate(-20.2 293.2) rotate(-22.01)" fill="#f9b499"/>
<path d="M743.81,186.34s15.94,2.38,25.44-1.78a33,33,0,0,1-23.61,3.92s17.71,5.49,30-4.91v-4.83l-9-4.51-12.35,1.12Z" fill="#2f2e41" data-secondary="true"/>
</svg>